<svg width="374" height="363" viewBox="0 0 374 363" fill="none" xmlns="http://www.w3.org/2000/svg">
<path d="M211.101 86.4851C178.839 59.2094 159.721 27.9677 120.159 16.4127C87.0673 6.74892 70.5216 21.7992 61.8149 49.2903C40.4669 117.033 99.2448 191.725 170.544 223.422C238.051 253.451 291.72 229.215 307.144 169.956C312.986 147.564 312.455 108.55 277.897 97.5613C252.525 89.4776 238.612 109.723 211.101 86.4851Z" fill="#F9FAFD"/>
<path opacity="0.9" d="M211.101 86.4851C178.839 59.2094 159.721 27.9677 120.159 16.4127C87.0673 6.74892 70.5216 21.7992 61.8149 49.2903C40.4669 117.033 99.2448 191.725 170.544 223.422C238.051 253.451 291.72 229.215 307.144 169.956C312.986 147.564 312.455 108.55 277.897 97.5613C252.525 89.4776 238.612 109.723 211.101 86.4851Z" fill="#F9B0C3"/>
<path d="M183.26 305.193C263.358 305.193 328.29 301.148 328.29 296.159C328.29 291.17 263.358 287.126 183.26 287.126C103.162 287.126 38.2305 291.17 38.2305 296.159C38.2305 301.148 103.162 305.193 183.26 305.193Z" fill="#DBDBDB"/>
<path d="M244.978 112.197H146.975C142.348 112.197 138.598 116.198 138.598 121.134V186.977C138.598 191.913 142.348 195.915 146.975 195.915H244.978C249.605 195.915 253.356 191.913 253.356 186.977V121.134C253.356 116.198 249.605 112.197 244.978 112.197Z" fill="#F9FAFD"/>
<path d="M135.919 111.231C135.723 111.23 135.535 111.147 135.395 110.999L134.049 109.571C133.908 109.421 133.829 109.217 133.829 109.004C133.829 108.792 133.908 108.588 134.049 108.438C134.19 108.288 134.381 108.203 134.58 108.203C134.779 108.203 134.97 108.288 135.111 108.438L136.45 109.874C136.589 110.024 136.668 110.226 136.668 110.437C136.668 110.648 136.589 110.85 136.45 110.999C136.38 111.073 136.297 111.132 136.206 111.172C136.115 111.211 136.018 111.231 135.919 111.231Z" fill="#F9FAFD"/>
<path d="M133.892 116.242H132C131.802 116.242 131.611 116.158 131.471 116.009C131.331 115.859 131.252 115.656 131.252 115.444C131.252 115.233 131.331 115.03 131.471 114.88C131.611 114.731 131.802 114.646 132 114.646H133.892C134.091 114.646 134.281 114.731 134.421 114.88C134.562 115.03 134.64 115.233 134.64 115.444C134.64 115.656 134.562 115.859 134.421 116.009C134.281 116.158 134.091 116.242 133.892 116.242Z" fill="#F9FAFD"/>
<path d="M140.684 109.076C140.495 109.077 140.312 109.001 140.173 108.863C140.034 108.725 139.95 108.536 139.936 108.334L139.802 106.315C139.795 106.211 139.807 106.105 139.838 106.005C139.869 105.906 139.919 105.814 139.983 105.734C140.048 105.655 140.127 105.59 140.215 105.543C140.303 105.496 140.399 105.469 140.497 105.462C140.695 105.448 140.889 105.519 141.037 105.658C141.186 105.797 141.277 105.993 141.29 106.204L141.432 108.223C141.44 108.327 141.427 108.433 141.396 108.532C141.365 108.632 141.316 108.724 141.251 108.804C141.186 108.883 141.108 108.948 141.019 108.995C140.931 109.042 140.835 109.069 140.737 109.076H140.684Z" fill="#F9FAFD"/>
<path d="M204.347 187.304L234.439 219.4V187.304H204.347Z" fill="#F9FAFD"/>
<path d="M212.597 173.244L211.101 166.468C210.724 164.688 210.724 162.839 211.101 161.058L213.181 151.41C214.031 147.296 213.571 142.997 211.872 139.193C210.173 135.39 207.332 132.301 203.801 130.415C203.867 130.237 203.924 130.056 203.973 129.872C204.096 129.287 204.109 128.682 204.013 128.091C203.916 127.5 203.711 126.935 203.41 126.429C203.109 125.922 202.718 125.484 202.258 125.139C201.798 124.794 201.279 124.549 200.73 124.418C200.182 124.287 199.614 124.272 199.06 124.375C198.507 124.478 197.977 124.697 197.502 125.018C197.028 125.339 196.617 125.757 196.293 126.248C195.97 126.738 195.74 127.292 195.618 127.877C195.581 128.064 195.558 128.253 195.55 128.444C191.603 128.543 187.799 130.044 184.741 132.709C181.683 135.374 179.546 139.052 178.668 143.159L176.641 152.815C176.269 154.593 175.527 156.259 174.472 157.69L170.44 163.157C170.046 163.693 169.785 164.327 169.682 165C169.579 165.672 169.638 166.362 169.852 167.004C170.066 167.646 170.43 168.22 170.908 168.672C171.386 169.124 171.963 169.439 172.587 169.589L208.117 178.079C208.738 178.223 209.383 178.196 209.992 178.003C210.601 177.81 211.154 177.456 211.601 176.973C212.048 176.491 212.373 175.897 212.547 175.245C212.722 174.593 212.739 173.904 212.597 173.244Z" fill="#F9B0C3"/>
<path d="M185.766 175.334C185.496 175.271 185.215 175.279 184.949 175.359C184.682 175.439 184.438 175.587 184.239 175.792C184.039 175.996 183.89 176.25 183.804 176.531C183.718 176.811 183.698 177.11 183.747 177.401C183.951 178.683 184.508 179.872 185.347 180.815C186.186 181.758 187.27 182.414 188.459 182.698C189.649 182.982 190.891 182.882 192.027 182.41C193.163 181.939 194.142 181.117 194.839 180.05C194.999 179.81 195.1 179.531 195.134 179.239C195.169 178.947 195.136 178.65 195.037 178.375C194.939 178.1 194.779 177.855 194.571 177.661C194.363 177.468 194.113 177.332 193.845 177.265L185.766 175.334Z" fill="#F9B0C3"/>
<path d="M158.479 161.904C158.294 161.906 158.111 161.857 157.948 161.764C157.785 161.671 157.646 161.535 157.544 161.369C154.012 155.723 152.726 148.81 153.97 142.152C155.214 135.494 158.887 129.636 164.179 125.866C164.427 125.691 164.73 125.627 165.022 125.69C165.314 125.753 165.57 125.937 165.735 126.202C165.9 126.466 165.959 126.79 165.9 127.101C165.841 127.412 165.669 127.686 165.421 127.861C160.63 131.285 157.308 136.597 156.186 142.632C155.064 148.666 156.233 154.929 159.437 160.045C159.602 160.308 159.663 160.631 159.605 160.942C159.548 161.254 159.377 161.528 159.13 161.705C158.937 161.84 158.71 161.91 158.479 161.904Z" fill="#F9B0C3"/>
<path d="M163.229 158.505C163.045 158.503 162.865 158.454 162.703 158.361C162.541 158.267 162.404 158.133 162.302 157.97C159.613 153.668 158.634 148.404 159.581 143.333C160.528 138.262 163.322 133.8 167.351 130.926C167.474 130.838 167.611 130.777 167.756 130.747C167.901 130.716 168.05 130.716 168.195 130.747C168.34 130.777 168.477 130.838 168.6 130.926C168.723 131.013 168.828 131.126 168.91 131.257C168.992 131.388 169.049 131.535 169.078 131.689C169.107 131.844 169.107 132.003 169.078 132.157C169.049 132.312 168.992 132.459 168.91 132.59C168.828 132.721 168.723 132.833 168.6 132.921C165.064 135.438 162.61 139.351 161.778 143.799C160.946 148.247 161.805 152.865 164.164 156.637C164.33 156.901 164.39 157.224 164.333 157.535C164.275 157.846 164.104 158.12 163.858 158.297C163.672 158.43 163.453 158.502 163.229 158.505Z" fill="#F9B0C3"/>
<path d="M167.986 155.113C167.803 155.114 167.622 155.067 167.46 154.975C167.299 154.883 167.161 154.749 167.059 154.586C166.142 153.122 165.506 151.48 165.185 149.753C164.864 148.026 164.865 146.249 165.189 144.523C165.513 142.796 166.153 141.155 167.072 139.693C167.991 138.231 169.171 136.976 170.545 136.001C170.792 135.837 171.089 135.782 171.373 135.848C171.657 135.913 171.907 136.093 172.068 136.351C172.23 136.609 172.292 136.923 172.241 137.229C172.19 137.534 172.029 137.806 171.794 137.988C170.667 138.791 169.699 139.822 168.946 141.024C168.193 142.225 167.669 143.573 167.405 144.991C167.14 146.409 167.14 147.868 167.404 149.286C167.668 150.704 168.191 152.052 168.944 153.254C169.107 153.518 169.167 153.84 169.11 154.151C169.052 154.461 168.882 154.735 168.637 154.914C168.444 155.049 168.217 155.119 167.986 155.113Z" fill="#F9B0C3"/>
<path d="M223.166 178.734C222.915 178.733 222.672 178.643 222.475 178.478C222.278 178.312 222.138 178.081 222.079 177.821C222.019 177.561 222.043 177.287 222.147 177.043C222.25 176.799 222.428 176.6 222.65 176.476C227.775 173.651 231.639 168.771 233.392 162.908C235.145 157.045 234.644 150.679 232 145.21C231.92 145.07 231.867 144.913 231.846 144.75C231.825 144.587 231.836 144.421 231.877 144.263C231.919 144.105 231.991 143.957 232.088 143.829C232.186 143.702 232.307 143.597 232.444 143.522C232.581 143.447 232.731 143.402 232.885 143.392C233.039 143.381 233.193 143.404 233.338 143.46C233.483 143.516 233.616 143.603 233.728 143.716C233.84 143.829 233.929 143.965 233.99 144.117C235.434 147.105 236.313 150.368 236.575 153.719C236.837 157.07 236.478 160.443 235.518 163.646C234.558 166.849 233.016 169.819 230.98 172.386C228.944 174.953 226.454 177.066 223.652 178.606C223.501 178.686 223.335 178.729 223.166 178.734Z" fill="#F9B0C3"/>
<path d="M220.541 173.316C220.29 173.315 220.047 173.225 219.85 173.059C219.653 172.894 219.513 172.662 219.454 172.402C219.394 172.142 219.418 171.868 219.522 171.625C219.625 171.381 219.803 171.181 220.025 171.057C221.897 170.028 223.56 168.615 224.919 166.899C226.279 165.183 227.308 163.198 227.948 161.058C228.588 158.917 228.826 156.663 228.648 154.425C228.471 152.186 227.882 150.007 226.914 148.011C226.777 147.729 226.751 147.4 226.842 147.096C226.932 146.793 227.132 146.541 227.397 146.395C227.661 146.249 227.97 146.221 228.254 146.318C228.538 146.414 228.774 146.627 228.911 146.91C230.014 149.185 230.685 151.669 230.887 154.221C231.089 156.773 230.817 159.342 230.088 161.782C229.359 164.221 228.186 166.484 226.636 168.44C225.086 170.395 223.191 172.006 221.057 173.18C220.899 173.27 220.721 173.317 220.541 173.316Z" fill="#F9B0C3"/>
<path d="M217.915 167.897C217.665 167.893 217.423 167.8 217.228 167.633C217.033 167.467 216.895 167.236 216.836 166.977C216.777 166.717 216.8 166.445 216.902 166.201C217.004 165.958 217.178 165.757 217.399 165.631C218.603 164.97 219.673 164.061 220.548 162.958C221.423 161.855 222.085 160.579 222.497 159.203C222.909 157.826 223.063 156.377 222.949 154.937C222.835 153.497 222.457 152.095 221.834 150.812C221.697 150.529 221.671 150.2 221.762 149.897C221.852 149.594 222.052 149.342 222.317 149.196C222.582 149.05 222.89 149.022 223.174 149.119C223.458 149.215 223.695 149.428 223.831 149.711C225.354 152.871 225.639 156.547 224.623 159.931C223.608 163.315 221.375 166.131 218.416 167.761C218.261 167.847 218.089 167.893 217.915 167.897Z" fill="#F9B0C3"/>
</svg>
