<svg width="33" height="36" viewBox="0 0 33 36" fill="none" xmlns="http://www.w3.org/2000/svg">
<path d="M4.125 4.5C4.125 3.25547 3.20332 2.25 2.0625 2.25C0.92168 2.25 0 3.25547 0 4.5V28.125C0 31.2328 2.30742 33.75 5.15625 33.75H30.9375C32.0783 33.75 33 32.7445 33 31.5C33 30.2555 32.0783 29.25 30.9375 29.25H5.15625C4.58906 29.25 4.125 28.7437 4.125 28.125V4.5ZM30.3316 10.5891C31.1373 9.71016 31.1373 8.28281 30.3316 7.40391C29.526 6.525 28.2176 6.525 27.4119 7.40391L20.625 14.8148L16.9254 10.7789C16.1197 9.9 14.8113 9.9 14.0057 10.7789L6.78691 18.6539C5.98125 19.5328 5.98125 20.9602 6.78691 21.8391C7.59258 22.718 8.90098 22.718 9.70664 21.8391L15.4688 15.5602L19.1684 19.5961C19.974 20.475 21.2824 20.475 22.0881 19.5961L30.3381 10.5961L30.3316 10.5891Z" fill="#1F192F" fill-opacity="0.7"/>
</svg>
