<svg width="62" height="70" viewBox="0 0 62 70" fill="none" xmlns="http://www.w3.org/2000/svg">
<path d="M23.6617 43.992V45H16.7137V43.992L18.6937 43.74C18.9577 43.692 19.1497 43.644 19.2697 43.596C19.3897 43.524 19.4977 43.368 19.5937 43.128C19.6897 42.888 19.8217 42.504 19.9897 41.976L26.8657 20.52H29.9617L36.8737 41.976C37.0417 42.504 37.1737 42.888 37.2697 43.128C37.3657 43.368 37.4737 43.524 37.5937 43.596C37.7377 43.644 37.9297 43.692 38.1697 43.74L40.1497 43.992V45H30.2137V43.992L32.1937 43.74C32.5777 43.692 32.7817 43.596 32.8057 43.452C32.8537 43.284 32.7457 42.792 32.4817 41.976L31.1137 37.512H22.7977L21.3937 41.976C21.1537 42.792 21.0457 43.284 21.0697 43.452C21.0937 43.596 21.2977 43.692 21.6817 43.74L23.6617 43.992ZM23.2297 36.252H30.7177L27.0097 24.3L23.2297 36.252ZM40.6059 23.724L45.6099 20.52H49.0659V41.976C49.0659 42.792 49.1019 43.284 49.1739 43.452C49.2459 43.596 49.4739 43.692 49.8579 43.74L51.8379 43.992V45H41.2539V43.992L43.9539 43.74C44.3379 43.692 44.5659 43.596 44.6379 43.452C44.7099 43.284 44.7459 42.792 44.7459 41.976V22.608L41.2899 24.804L40.6059 23.724Z" fill="#1F192F"/>
<path d="M51.5079 60.321C49.2126 61.5958 46.7546 62.5777 44.1958 63.242C39.0357 64.5783 33.6 64.5783 28.4398 63.242C25.8831 62.5718 23.4258 61.5902 21.1277 60.321C18.8273 59.0454 16.7129 57.482 14.8396 55.6717C12.9623 53.8658 11.3376 51.8322 10.0068 49.6223C8.67681 47.4103 7.65597 45.0392 6.97065 42.5704C5.60496 37.609 5.60496 32.391 6.97065 27.4296C7.65597 24.9608 8.67681 22.5897 10.0068 20.3778C11.3376 18.1678 12.9623 16.1342 14.8396 14.3284C16.7133 12.5234 18.8278 10.9658 21.1277 9.69633C23.4214 8.41434 25.8797 7.42651 28.4398 6.75804C31.011 6.08916 33.6633 5.75207 36.3268 5.75559V2.75258e-06C31.5462 -0.00182076 26.8119 0.9024 22.3945 2.66101C17.9771 4.41962 13.9631 6.99815 10.5817 10.2494C8.33936 12.4111 6.40058 14.8458 4.81472 17.4914C3.23524 20.138 2.02702 22.9741 1.22155 25.9259C-0.407184 31.868 -0.407184 38.1148 1.22155 44.0568C2.02552 47.0146 3.23378 49.8566 4.81472 52.5087C9.66872 60.5344 17.6147 66.3966 26.9307 68.8247C33.1011 70.3918 39.5885 70.3918 45.7589 68.8247C48.8272 68.0498 51.7752 66.8875 54.5262 65.3679C57.2596 63.8626 59.7729 62.0143 62 59.8716L57.7421 55.7926C55.883 57.5625 53.7864 59.0854 51.5079 60.321Z" fill="#46467A"/>
</svg>
