<svg width="33" height="36" viewBox="0 0 33 36" fill="none" xmlns="http://www.w3.org/2000/svg">
<path d="M0 9C0 6.51797 1.47984 4.5 3.3 4.5H13.2H15.675H16.5H29.7C31.5202 4.5 33 6.51797 33 9V27C33 29.482 31.5202 31.5 29.7 31.5H16.5H15.675H13.2H3.3C1.47984 31.5 0 29.482 0 27V9ZM16.5 9V27H29.7V9H16.5ZM9.19359 12.368C9.02859 11.8617 8.65734 11.5312 8.25 11.5312C7.84266 11.5312 7.47141 11.8617 7.30641 12.368L4.00641 22.493C3.77437 23.2031 4.01156 24.0328 4.53234 24.3492C5.05312 24.6656 5.66156 24.3422 5.89359 23.632L6.3525 22.2188H10.1475L10.6064 23.632C10.8384 24.3422 11.4469 24.6586 11.9677 24.3492C12.4884 24.0398 12.7205 23.2031 12.4936 22.493L9.19359 12.368ZM8.25 16.3969L9.22969 19.4062H7.27031L8.25 16.3969ZM23.1 11.5312C23.6672 11.5312 24.1313 12.1641 24.1313 12.9375V13.2188H26.4H27.225C27.7922 13.2188 28.2563 13.8516 28.2563 14.625C28.2563 15.3984 27.7922 16.0312 27.225 16.0312H27.1219L27.0394 16.3477C26.5805 18.0633 25.8844 19.6242 24.9975 20.9461C25.0439 20.9883 25.0903 21.0234 25.1367 21.0586L26.1112 21.8531C26.6011 22.2539 26.7558 23.1188 26.467 23.7797C26.1783 24.4406 25.5389 24.6586 25.0542 24.2648L24.0797 23.4703C23.8477 23.2805 23.6259 23.0836 23.4042 22.8727C22.8577 23.4 22.275 23.857 21.6511 24.2367L21.4655 24.3492C20.9447 24.6656 20.3363 24.3422 20.1042 23.632C19.8722 22.9219 20.1094 22.0922 20.6302 21.7758L20.8158 21.6633C21.1458 21.4594 21.4655 21.2344 21.7697 20.9742L21.1406 20.1164C20.7384 19.568 20.7384 18.675 21.1406 18.1266C21.5428 17.5781 22.1977 17.5781 22.5998 18.1266L23.3527 19.1531L23.3784 19.1883C24.0178 18.2672 24.5386 17.1984 24.915 16.0242H23.1H19.3875C18.8203 16.0242 18.3562 15.3914 18.3562 14.618C18.3562 13.8445 18.8203 13.2117 19.3875 13.2117H22.0688V12.9305C22.0688 12.157 22.5328 11.5242 23.1 11.5242V11.5312Z" fill="#1F192F" fill-opacity="0.7"/>
</svg>
