<svg width="33" height="36" viewBox="0 0 33 36" fill="none" xmlns="http://www.w3.org/2000/svg">
<path d="M33 6.75C33 4.26797 30.8859 2.25 28.2857 2.25H4.71429C2.11406 2.25 0 4.26797 0 6.75V29.25C0 31.732 2.11406 33.75 4.71429 33.75H28.2857C30.8859 33.75 33 31.732 33 29.25V6.75ZM18.8571 11.25C18.8571 12.4945 17.8038 13.5 16.5 13.5H9.42857C8.12478 13.5 7.07143 12.4945 7.07143 11.25C7.07143 10.0055 8.12478 9 9.42857 9H16.5C17.8038 9 18.8571 10.0055 18.8571 11.25ZM23.5714 15.75C24.8752 15.75 25.9286 16.7555 25.9286 18C25.9286 19.2445 24.8752 20.25 23.5714 20.25H9.42857C8.12478 20.25 7.07143 19.2445 7.07143 18C7.07143 16.7555 8.12478 15.75 9.42857 15.75H23.5714ZM14.1429 24.75C14.1429 25.9945 13.0895 27 11.7857 27H9.42857C8.12478 27 7.07143 25.9945 7.07143 24.75C7.07143 23.5055 8.12478 22.5 9.42857 22.5H11.7857C13.0895 22.5 14.1429 23.5055 14.1429 24.75Z" fill="#1F192F" fill-opacity="0.7"/>
</svg>
