<svg width="33" height="36" viewBox="0 0 33 36" fill="none" xmlns="http://www.w3.org/2000/svg">
<g clip-path="url(#clip0_17_3221)">
<path d="M31.9626 11.7141C32.1688 12.3258 31.9948 13.0078 31.5501 13.4437L28.7593 16.2141C28.8302 16.7977 28.8688 17.3953 28.8688 18C28.8688 18.6047 28.8302 19.2023 28.7593 19.7859L31.5501 22.5562C31.9948 22.9922 32.1688 23.6742 31.9626 24.2859C31.679 25.1227 31.3374 25.9242 30.9442 26.6977L30.6413 27.2672C30.2159 28.0406 29.739 28.7719 29.2169 29.4609C28.8366 29.9672 28.205 30.1359 27.6378 29.9391L24.0477 28.6945C23.1841 29.4187 22.2302 30.0234 21.2118 30.4805L20.4061 34.4953C20.2772 35.1352 19.8261 35.6414 19.2331 35.7469C18.3436 35.9086 17.4284 35.993 16.4938 35.993C15.5593 35.993 14.644 35.9086 13.7546 35.7469C13.1616 35.6414 12.7104 35.1352 12.5815 34.4953L11.7759 30.4805C10.7575 30.0234 9.80361 29.4187 8.93993 28.6945L5.35634 29.9461C4.78915 30.143 4.15751 29.9672 3.77724 29.468C3.25517 28.7789 2.77821 28.0477 2.35282 27.2742L2.04989 26.7047C1.65673 25.9312 1.31513 25.1297 1.03154 24.293C0.825285 23.6812 0.999309 22.9992 1.44404 22.5633L4.23486 19.793C4.16396 19.2023 4.12529 18.6047 4.12529 18C4.12529 17.3953 4.16396 16.7977 4.23486 16.2141L1.44404 13.4437C0.999309 13.0078 0.825285 12.3258 1.03154 11.7141C1.31513 10.8773 1.65673 10.0758 2.04989 9.30234L2.35282 8.73281C2.77821 7.95937 3.25517 7.22812 3.77724 6.53906C4.15751 6.03281 4.78915 5.86406 5.35634 6.06094L8.94638 7.30547C9.81005 6.58125 10.764 5.97656 11.7823 5.51953L12.588 1.50469C12.7169 0.864844 13.1681 0.358594 13.761 0.253125C14.6505 0.084375 15.5657 0 16.5003 0C17.4349 0 18.3501 0.084375 19.2395 0.246094C19.8325 0.351562 20.2837 0.857812 20.4126 1.49766L21.2183 5.5125C22.2366 5.96953 23.1905 6.57422 24.0542 7.29844L27.6442 6.05391C28.2114 5.85703 28.8431 6.03281 29.2233 6.53203C29.7454 7.22109 30.2224 7.95234 30.6477 8.72578L30.9507 9.29531C31.3438 10.0687 31.6854 10.8703 31.969 11.707L31.9626 11.7141ZM16.5003 23.625C17.8678 23.625 19.1793 23.0324 20.1463 21.9775C21.1133 20.9226 21.6565 19.4918 21.6565 18C21.6565 16.5082 21.1133 15.0774 20.1463 14.0225C19.1793 12.9676 17.8678 12.375 16.5003 12.375C15.1328 12.375 13.8212 12.9676 12.8543 14.0225C11.8873 15.0774 11.344 16.5082 11.344 18C11.344 19.4918 11.8873 20.9226 12.8543 21.9775C13.8212 23.0324 15.1328 23.625 16.5003 23.625Z" fill="#1F192F" fill-opacity="0.7"/>
</g>
<defs>
<clipPath id="clip0_17_3221">
<rect width="33" height="36" fill="white"/>
</clipPath>
</defs>
</svg>
