<svg width="33" height="26" viewBox="0 0 33 26" fill="none" xmlns="http://www.w3.org/2000/svg">
<path d="M32.5433 13.6866L21.5427 24.6871C20.5605 25.6693 18.8581 24.9818 18.8581 23.574V17.288H9.95287C9.082 17.288 8.38137 16.5873 8.38137 15.7165V9.43043C8.38137 8.55956 9.082 7.85892 9.95287 7.85892H18.8581V1.5729C18.8581 0.171639 20.554 -0.522443 21.5427 0.459749L32.5433 11.4603C33.1522 12.0758 33.1522 13.0711 32.5433 13.6866ZM12.5721 24.3597V21.7406C12.5721 21.3084 12.2185 20.9548 11.7863 20.9548H6.28603C5.12704 20.9548 4.19068 20.0185 4.19068 18.8595V6.28742C4.19068 5.12843 5.12704 4.19208 6.28603 4.19208H11.7863C12.2185 4.19208 12.5721 3.83849 12.5721 3.40632V0.787146C12.5721 0.354982 12.2185 0.00139265 11.7863 0.00139265H6.28603C2.81562 0.00139265 0 2.81701 0 6.28742V18.8595C0 22.3299 2.81562 25.1455 6.28603 25.1455H11.7863C12.2185 25.1455 12.5721 24.7919 12.5721 24.3597Z" fill="#1F192F" fill-opacity="0.7"/>
</svg>
