<svg width="28" height="33" viewBox="0 0 28 33" fill="none" xmlns="http://www.w3.org/2000/svg">
<g clip-path="url(#clip0_17_3225)">
<path d="M13.9996 0C12.8933 0 11.9996 0.92168 11.9996 2.0625V3.3C7.43708 4.25391 3.99958 8.41758 3.99958 13.4062V15.0434C3.99958 17.9695 3.03083 20.8119 1.26208 23.0936L0.330829 24.2988C-0.031671 24.7629 -0.100421 25.401 0.149579 25.9359C0.399579 26.4709 0.924579 26.8125 1.49958 26.8125H26.4996C27.0746 26.8125 27.5996 26.4709 27.8496 25.9359C28.0996 25.401 28.0308 24.7629 27.6683 24.2988L26.7371 23.1C24.9683 20.8119 23.9996 17.9695 23.9996 15.0434V13.4062C23.9996 8.41758 20.5621 4.25391 15.9996 3.3V2.0625C15.9996 0.92168 15.1058 0 13.9996 0ZM13.9996 6.1875C17.8683 6.1875 20.9996 9.4166 20.9996 13.4062V15.0434C20.9996 18.1307 21.8683 21.1406 23.4808 23.7188H4.51833C6.13083 21.1406 6.99958 18.1307 6.99958 15.0434V13.4062C6.99958 9.4166 10.1308 6.1875 13.9996 6.1875ZM17.9996 28.875H13.9996H9.99958C9.99958 29.9707 10.4183 31.0213 11.1683 31.7947C11.9183 32.5682 12.9371 33 13.9996 33C15.0621 33 16.0808 32.5682 16.8308 31.7947C17.5808 31.0213 17.9996 29.9707 17.9996 28.875Z" fill="#1F192F" fill-opacity="0.7"/>
</g>
<defs>
<clipPath id="clip0_17_3225">
<rect width="28" height="33" fill="white"/>
</clipPath>
</defs>
</svg>
