<svg width="469" height="326" viewBox="0 0 469 326" fill="none" xmlns="http://www.w3.org/2000/svg">
<path d="M229.247 90.443C228.742 90.4439 228.241 90.3492 227.765 90.163L220.117 87.195C219.365 86.9007 218.695 86.3911 218.174 85.7168C217.653 85.0425 217.299 84.2272 217.147 83.352L215.615 74.441C215.464 73.5647 215.523 72.6597 215.784 71.8167C216.045 70.9738 216.5 70.2227 217.103 69.639L223.225 63.703C223.829 63.1192 224.559 62.7228 225.342 62.5533C226.126 62.3838 226.935 62.4471 227.69 62.737L235.344 65.712C236.098 66.004 236.769 66.5128 237.292 67.1873C237.814 67.8619 238.169 68.6784 238.321 69.555L239.846 78.459C239.995 79.3356 239.937 80.2406 239.677 81.0842C239.417 81.9278 238.964 82.6806 238.364 83.268L232.236 89.204C231.406 90.0067 230.344 90.4467 229.247 90.443ZM221.993 82.001L229.147 84.801L234.875 79.257L233.443 70.934L226.289 68.134L220.567 73.685L221.993 82.001Z" fill="#F5F5F5"/>
<path d="M318.569 64.5782C318.064 64.5791 317.563 64.4845 317.087 64.2982L313.21 62.7932C312.457 62.5001 311.787 61.9909 311.265 61.3164C310.744 60.6419 310.39 59.8259 310.239 58.9502L309.464 54.4422C309.314 53.5666 309.372 52.6623 309.632 51.8197C309.892 50.9771 310.345 50.2255 310.946 49.6402L314.073 46.6302C314.676 46.0469 315.405 45.6513 316.187 45.483C316.97 45.3147 317.778 45.3796 318.531 45.6712L322.402 47.1762C323.156 47.4682 323.828 47.977 324.35 48.6515C324.873 49.3261 325.227 50.1426 325.379 51.0192L326.154 55.5272C326.305 56.4034 326.246 57.3085 325.985 58.1514C325.724 58.9944 325.269 59.7455 324.666 60.3292L321.539 63.3392C320.712 64.1345 319.659 64.5737 318.569 64.5782ZM315.098 57.5782L318.475 58.8872L321.17 56.2692L320.495 52.3492L317.124 51.0402L314.423 53.7002L315.098 57.5782Z" fill="#F5F5F5"/>
<path d="M425.651 130.539C425.156 130.535 424.669 130.408 424.224 130.165C423.779 129.923 423.389 129.573 423.081 129.139L420.898 126.087C420.538 125.583 420.302 124.981 420.214 124.342C420.126 123.703 420.19 123.05 420.398 122.447L421.649 118.807C421.858 118.206 422.205 117.676 422.655 117.272C423.105 116.867 423.642 116.603 424.212 116.504L427.664 115.909C428.236 115.813 428.82 115.885 429.359 116.12C429.897 116.354 430.372 116.743 430.735 117.246L432.917 120.298C433.277 120.803 433.513 121.405 433.601 122.044C433.689 122.682 433.625 123.336 433.417 123.938L432.167 127.578C431.957 128.182 431.609 128.712 431.158 129.117C430.707 129.521 430.168 129.785 429.597 129.881L426.145 130.476C425.982 130.512 425.817 130.533 425.651 130.539ZM428.183 118.688H428.064L424.613 119.283C424.474 119.306 424.344 119.37 424.234 119.467C424.124 119.564 424.039 119.691 423.987 119.836L422.737 123.476C422.686 123.621 422.67 123.778 422.691 123.932C422.712 124.085 422.769 124.23 422.855 124.351L425.038 127.403C425.126 127.523 425.24 127.615 425.369 127.672C425.499 127.728 425.638 127.747 425.776 127.725L429.228 127.13C429.366 127.109 429.497 127.046 429.607 126.949C429.717 126.852 429.802 126.723 429.853 126.577L431.104 122.937C431.153 122.793 431.168 122.636 431.147 122.482C431.127 122.329 431.071 122.184 430.985 122.062L428.802 119.01C428.726 118.909 428.632 118.828 428.525 118.772C428.418 118.717 428.301 118.688 428.183 118.688Z" fill="#E0E0E0"/>
<path d="M36.0809 160.961C35.4465 160.96 34.8204 160.8 34.2481 160.494C33.6759 160.188 33.1719 159.742 32.7728 159.19L27.6451 152.022C27.1849 151.372 26.885 150.598 26.7752 149.778C26.6655 148.957 26.7498 148.119 27.0198 147.346L30.0151 138.785C30.2852 138.012 30.7316 137.332 31.3098 136.812C31.8881 136.293 32.578 135.952 33.3106 135.824L41.44 134.424C42.1738 134.301 42.9237 134.395 43.6149 134.697C44.3062 134.999 44.9146 135.499 45.3796 136.146L50.4635 143.3C50.9243 143.952 51.2245 144.727 51.3342 145.548C51.4439 146.37 51.3593 147.21 51.0889 147.983L48.1498 156.551C47.8801 157.327 47.4331 158.009 46.8536 158.53C46.2741 159.051 45.5825 159.392 44.848 159.519L36.7187 160.919C36.5076 160.954 36.2942 160.968 36.0809 160.961ZM31.1157 149.061L36.1184 156.061L44.0601 154.703L46.9742 146.303L41.9715 139.303L34.0298 140.668L31.1157 149.061Z" fill="#E0E0E0"/>
<path d="M56.8302 98.2204H51.9964C51.4205 98.2224 50.8541 98.0554 50.3538 97.7361C49.8535 97.4168 49.4367 96.9562 49.1449 96.4004L46.7249 91.7174C46.4392 91.1552 46.2891 90.5196 46.2891 89.8729C46.2891 89.2262 46.4392 88.5906 46.7249 88.0284L49.1449 83.3454C49.4338 82.7852 49.8495 82.3201 50.3501 81.9969C50.8507 81.6737 51.4185 81.5038 51.9964 81.5044H56.8302C57.4081 81.5038 57.9759 81.6737 58.4765 81.9969C58.9771 82.3201 59.3928 82.7852 59.6818 83.3454L62.1018 88.0004C62.3874 88.5626 62.5376 89.1982 62.5376 89.8449C62.5376 90.4916 62.3874 91.1272 62.1018 91.6894L59.6818 96.4004C59.3895 96.9558 58.9726 97.4159 58.4724 97.7352C57.9721 98.0544 57.406 98.2217 56.8302 98.2204ZM51.9964 84.2764C51.8574 84.2767 51.7209 84.3176 51.6003 84.3949C51.4797 84.4722 51.3791 84.5834 51.3085 84.7174L48.8948 89.4004C48.8244 89.5353 48.7874 89.6887 48.7874 89.8449C48.7874 90.0011 48.8244 90.1545 48.8948 90.2894L51.3085 95.0004C51.3788 95.1353 51.4791 95.2474 51.5997 95.326C51.7203 95.4045 51.8569 95.4467 51.9964 95.4484H56.8302C56.9718 95.4491 57.1111 95.4081 57.234 95.3294C57.357 95.2508 57.4593 95.1373 57.5306 95.0004L59.9444 90.3174C60.0147 90.1825 60.0518 90.0291 60.0518 89.8729C60.0518 89.7167 60.0147 89.5633 59.9444 89.4284L57.5306 84.7174C57.46 84.5834 57.3595 84.4722 57.2389 84.3949C57.1183 84.3176 56.9817 84.2767 56.8427 84.2764H51.9964Z" fill="#EBEBEB"/>
<path d="M139.311 45.2652L129.881 38.6222L118.306 16.7542L102.204 5.72217L99.0898 9.49517L100.722 11.9592L105.806 19.5892L125.985 49.9132L134.215 54.9812L139.311 45.2652Z" fill="#EBEBEB"/>
<path d="M127.461 60.9871L124.76 50.9211L95.1064 12.9951L91.1543 15.6131L97.4139 35.5561L114.629 54.4841L118.488 66.3001L127.461 60.9871Z" fill="#EBEBEB"/>
<path d="M143.525 47.1411C143.525 47.1411 177.012 67.7141 183.759 74.6581C190.506 81.6021 206.271 110.519 204.67 114.215C203.069 117.911 201.844 118.415 198.211 114.831C194.577 111.247 182.834 91.4371 179.682 88.2311C176.53 85.0251 137.297 59.3001 137.297 59.3001L143.525 47.1411Z" fill="#E0E0E0"/>
<path d="M120.821 55.954C126.678 55.954 131.426 50.6387 131.426 44.082C131.426 37.5252 126.678 32.21 120.821 32.21C114.963 32.21 110.215 37.5252 110.215 44.082C110.215 50.6387 114.963 55.954 120.821 55.954Z" fill="#EBEBEB"/>
<path d="M118.186 55.5694C119.04 55.7493 119.906 55.85 120.775 55.8704C121.792 55.8743 122.804 55.7068 123.777 55.3734C126.118 54.6065 128.147 52.951 129.517 50.6913C130.886 48.4317 131.51 45.7088 131.281 42.9904C131.174 41.8557 130.913 40.7461 130.505 39.7004C130.312 39.1635 130.086 38.642 129.83 38.1394C129.556 37.6318 129.248 37.1475 128.911 36.6904C127.515 34.7529 125.601 33.3674 123.451 32.7374C121.3 32.1075 119.025 32.2662 116.961 33.1904C116.471 33.4106 115.995 33.6655 115.535 33.9534C115.099 34.2558 114.681 34.5902 114.284 34.9544C113.493 35.6522 112.803 36.4834 112.239 37.4184C111.176 39.1425 110.544 41.1531 110.407 43.2424C110.306 44.9021 110.518 46.5672 111.03 48.1291C111.541 49.691 112.341 51.1147 113.377 52.3074C114.081 53.1387 114.893 53.8466 115.785 54.4074C116.555 54.8612 117.355 55.245 118.18 55.5554C118.124 55.5634 118.067 55.5634 118.011 55.5554L117.523 55.4014C117.258 55.3259 116.998 55.2252 116.748 55.1004C116.397 54.9516 116.056 54.7737 115.729 54.5684C114.805 54.0344 113.961 53.3424 113.227 52.5174C112.15 51.3151 111.315 49.8698 110.776 48.2779C110.236 46.6859 110.006 44.9836 110.101 43.2844C110.236 41.1353 110.884 39.0661 111.977 37.2924C112.557 36.328 113.265 35.4688 114.078 34.7444C114.91 33.9699 115.85 33.3527 116.861 32.9174C118.986 31.9633 121.328 31.7966 123.544 32.4416C125.76 33.0866 127.733 34.5094 129.173 36.5014C129.516 36.9763 129.829 37.4768 130.111 37.9994C130.377 38.5193 130.609 39.0597 130.805 39.6164C131.203 40.6869 131.448 41.8208 131.531 42.9764C131.703 44.9788 131.418 46.9974 130.704 48.8434C129.99 50.6894 128.87 52.3027 127.447 53.5324C126.366 54.4776 125.129 55.1767 123.808 55.5904C122.818 55.9149 121.788 56.0637 120.756 56.0314C120.38 56.0331 120.003 56.0027 119.631 55.9404C119.355 55.9187 119.081 55.8719 118.812 55.8004L118.318 55.6674C118.27 55.6417 118.226 55.6087 118.186 55.5694Z" fill="#E0E0E0"/>
<path d="M119.318 50.5713C118.171 50.239 117.137 49.5332 116.348 48.5431C115.559 47.5529 115.05 46.3231 114.886 45.0091C114.722 43.6951 114.909 42.3561 115.425 41.1615C115.94 39.9668 116.761 38.9703 117.783 38.2979C118.805 37.6255 119.982 37.3076 121.165 37.3843C122.348 37.4609 123.485 37.9288 124.43 38.7287C125.376 39.5286 126.089 40.6245 126.478 41.8778C126.867 43.1311 126.915 44.4854 126.616 45.7693C126.216 47.4886 125.223 48.9599 123.855 49.8602C122.486 50.7605 120.855 51.0163 119.318 50.5713Z" fill="#E0E0E0"/>
<path d="M119.318 50.5713C119.318 50.5223 119.837 50.7113 120.775 50.7113C121.898 50.6999 122.994 50.3337 123.939 49.6551C124.884 48.9764 125.638 48.0128 126.115 46.8753C126.553 45.8122 126.73 44.6381 126.628 43.4733C126.514 42.1893 126.064 40.9716 125.334 39.9733C124.554 38.8947 123.486 38.1244 122.286 37.7755C121.086 37.4265 119.818 37.5172 118.668 38.0343C118.122 38.262 117.613 38.5883 117.161 39.0003C116.716 39.3971 116.33 39.8695 116.016 40.4003C115.422 41.362 115.066 42.4827 114.985 43.6483C114.916 44.6659 115.061 45.6873 115.41 46.6303C115.914 48.014 116.819 49.1678 117.98 49.9063C118.413 50.1686 118.86 50.4023 119.318 50.6063C118.827 50.5098 118.354 50.3229 117.917 50.0533C116.698 49.339 115.736 48.174 115.197 46.7563C114.819 45.7775 114.654 44.7124 114.716 43.6483C114.787 42.4228 115.149 41.2409 115.766 40.2253C116.086 39.667 116.481 39.1666 116.936 38.7413C117.412 38.3007 117.948 37.9486 118.524 37.6983C119.737 37.1486 121.076 37.0505 122.343 37.4186C123.61 37.7867 124.738 38.6014 125.559 39.7423C126.337 40.7936 126.818 42.0801 126.941 43.4383C127.039 44.6615 126.842 45.8918 126.372 47.0013C125.962 47.9621 125.356 48.8014 124.602 49.4513C123.513 50.3957 122.165 50.8902 120.788 50.8513C120.287 50.8508 119.79 50.7562 119.318 50.5713Z" fill="#E0E0E0"/>
<path d="M136.994 44.8676L132.66 53.3103C131.391 55.7841 132.153 58.9418 134.363 60.3632L134.769 60.6247C136.979 62.0461 139.8 61.1929 141.07 58.7191L145.403 50.2764C146.673 47.8026 145.911 44.6449 143.701 43.2235L143.294 42.9619C141.084 41.5406 138.264 42.3938 136.994 44.8676Z" fill="#EBEBEB"/>
<path d="M132.657 53.3153C132.398 53.9386 132.223 54.6015 132.138 55.2823C132.073 56.0823 132.169 56.8884 132.419 57.6413C132.574 58.1048 132.785 58.5428 133.044 58.9433C133.35 59.3829 133.717 59.7636 134.132 60.0703C134.588 60.4141 135.079 60.6938 135.596 60.9033C136.498 61.2455 137.475 61.2555 138.383 60.9319C139.291 60.6082 140.083 59.9678 140.642 59.1043C142.08 56.4233 143.6 53.3503 145.238 50.1933C145.613 49.4449 145.81 48.6013 145.81 47.7433C145.81 46.8854 145.613 46.0418 145.238 45.2933C144.907 44.5746 144.421 43.9589 143.825 43.5013C143.247 43.0465 142.595 42.7231 141.905 42.5493C141.267 42.4042 140.607 42.4167 139.973 42.586C139.339 42.7552 138.746 43.0772 138.235 43.5293C137.253 44.3623 136.821 45.6293 136.246 46.6513L133.67 51.5513L132.957 52.8743C132.881 53.0335 132.791 53.1837 132.688 53.3223C132.75 53.1544 132.821 52.9908 132.901 52.8323C133.069 52.4963 133.288 52.0413 133.563 51.4813C134.189 50.2773 135.008 48.5973 136.065 46.5323L136.89 44.8943C137.195 44.2826 137.6 43.741 138.085 43.2983C138.621 42.816 139.244 42.4698 139.911 42.2836C140.578 42.0975 141.274 42.0759 141.949 42.2203C142.671 42.3969 143.355 42.7298 143.963 43.2003C144.628 43.6667 145.177 44.3146 145.557 45.0833C145.966 45.8875 146.181 46.797 146.181 47.7223C146.181 48.6477 145.966 49.5572 145.557 50.3613C143.913 53.5323 142.431 56.5563 140.924 59.2933C140.509 59.9149 139.979 60.4287 139.37 60.7996C138.761 61.1706 138.088 61.3898 137.397 61.4423C136.771 61.4826 136.145 61.3876 135.552 61.1623C135.019 60.9334 134.513 60.6325 134.045 60.2663C133.611 59.9397 133.229 59.5353 132.913 59.0693C132.649 58.6365 132.439 58.1655 132.288 57.6693C132.078 57.0348 131.985 56.3596 132.013 55.6839C132.041 55.0081 132.189 54.3455 132.45 53.7353C132.508 53.5891 132.578 53.4486 132.657 53.3153Z" fill="#E0E0E0"/>
<path d="M119.732 72.2782C119.732 72.2782 132.42 112.612 137.448 121.194C142.476 129.776 165.394 151.882 168.909 150.72C172.423 149.558 173.042 148.277 170.503 143.72C167.964 139.163 152.369 122.937 150.067 118.926C147.766 114.915 131.426 67.4062 131.426 67.4062L119.732 72.2782Z" fill="#E0E0E0"/>
<path d="M126.939 61.2887L118.793 64.7018C116.406 65.7019 115.195 68.6788 116.088 71.3509L116.253 71.8426C117.146 74.5147 119.806 75.8701 122.193 74.87L130.339 71.4568C132.726 70.4567 133.937 67.4798 133.044 64.8077L132.879 64.316C131.986 61.644 129.326 60.2886 126.939 61.2887Z" fill="#EBEBEB"/>
<path d="M126.942 61.2814C127.085 61.1978 127.236 61.132 127.392 61.0854C127.841 60.9421 128.307 60.876 128.774 60.8894C129.515 60.917 130.239 61.14 130.888 61.5404C131.29 61.7992 131.661 62.117 131.988 62.4854C132.346 62.912 132.641 63.3985 132.864 63.9274C133.111 64.5038 133.291 65.113 133.402 65.7404C133.511 66.437 133.494 67.1513 133.352 67.8404C133.19 68.5989 132.882 69.3087 132.45 69.9205C132.018 70.5322 131.472 71.0311 130.85 71.3824C128.199 72.5794 125.291 73.7484 122.227 75.0504C121.451 75.3704 120.615 75.4612 119.799 75.314C118.983 75.1669 118.215 74.7868 117.568 74.2104C116.952 73.6521 116.471 72.9302 116.167 72.1104C115.847 71.3556 115.664 70.537 115.63 69.7024C115.607 68.9269 115.736 68.1552 116.008 67.4416C116.28 66.728 116.689 66.0899 117.205 65.5724C117.674 65.1099 118.218 64.7512 118.806 64.5154L120.382 63.8644L125.147 61.9324L126.448 61.4214C126.598 61.3543 126.752 61.3027 126.911 61.2674C126.773 61.3608 126.626 61.4359 126.473 61.4914L125.222 62.0654L120.495 64.1094C119.513 64.5784 118.312 64.8514 117.418 65.7964C116.937 66.2891 116.557 66.8929 116.304 67.5661C116.051 68.2392 115.932 68.9657 115.955 69.6954C116 70.4849 116.18 71.2573 116.486 71.9704C116.772 72.7275 117.224 73.3919 117.799 73.9024C118.403 74.4399 119.12 74.7938 119.881 74.9299C120.643 75.0661 121.423 74.9798 122.146 74.6794C125.191 73.3844 128.149 72.2014 130.75 71.0534C131.599 70.5719 132.289 69.8015 132.721 68.8531C133.154 67.9047 133.307 66.8271 133.158 65.7754C133.054 65.1686 132.884 64.5784 132.651 64.0184C132.449 63.506 132.174 63.0333 131.838 62.6184C131.532 62.2583 131.183 61.9473 130.8 61.6944C130.18 61.2888 129.484 61.0492 128.768 60.9944C128.15 60.9852 127.534 61.082 126.942 61.2814Z" fill="#E0E0E0"/>
<path d="M446.964 293.429C446.964 293.527 351.638 293.611 234.075 293.611C116.513 293.611 21.168 293.527 21.168 293.429C21.168 293.331 116.475 293.247 234.075 293.247C351.675 293.247 446.964 293.331 446.964 293.429Z" fill="#263238"/>
<path d="M54.4023 213.349C54.5712 212.761 74.0566 141.459 74.0566 141.459L73.5688 132.604L78.6653 123.21L84.9937 125.555L84.1307 136.055L79.6283 143.713L60.0303 215.4L54.4023 213.349Z" fill="#E0E0E0"/>
<path d="M54.4023 213.349L54.7775 213.468L55.8594 213.846L60.0303 215.309L59.9616 215.351C63.132 203.724 70.4609 176.816 79.4907 143.685L83.9869 136.034V136.111C84.262 132.758 84.5559 129.195 84.8498 125.611L84.9624 125.8L84.4371 125.611L78.634 123.462L78.8216 123.385L73.7251 132.779V132.674C73.8877 135.693 74.0482 138.645 74.2066 141.529V141.592C68.5099 162.305 63.576 180.246 60.0679 193.014C58.3044 199.405 56.8912 204.494 55.9219 208.001C55.4404 209.751 55.0589 211.102 54.8026 212.026L54.5086 213.069L54.4023 213.426C54.4236 213.31 54.4507 213.195 54.4836 213.083C54.5462 212.838 54.6337 212.495 54.7525 212.054C55.0027 211.13 55.3779 209.786 55.8281 208.05C56.7724 204.55 58.1481 199.454 59.874 193.07C63.3634 180.26 68.2535 162.27 73.9065 141.487V141.55C73.7439 138.666 73.5792 135.714 73.4125 132.695V132.639V132.59L78.5089 123.196L78.5715 123.07L78.6965 123.119L84.5059 125.261L85.0249 125.457L85.15 125.499V125.646C84.8561 129.251 84.5622 132.814 84.2808 136.146V136.195V136.23L79.7846 143.888V143.839C70.661 176.9 63.2696 203.773 60.0679 215.4V215.463H60.0116L55.8344 213.916L54.7775 213.517L54.4023 213.349Z" fill="#263238"/>
<path d="M49.707 216.8L40.9523 230.044L28.7145 279.744C28.7145 279.744 26.9574 289.88 36.9564 292.757C48.2124 295.991 50.7763 286.359 50.7763 286.359L62.6576 237.828L62.5326 221L65.4654 217.297C65.598 217.124 65.691 216.918 65.7364 216.696C65.7818 216.474 65.7781 216.243 65.7257 216.023C65.6734 215.803 65.5739 215.601 65.4359 215.434C65.2979 215.267 65.1256 215.14 64.9339 215.064L50.8764 209.87C50.681 209.802 50.4736 209.788 50.2724 209.83C50.0713 209.873 49.8824 209.969 49.7225 210.113C49.5626 210.256 49.4365 210.44 49.3553 210.651C49.2741 210.861 49.2403 211.09 49.2568 211.319L49.707 216.8Z" fill="#46467A"/>
<path d="M62.608 221.581C62.5767 221.679 59.6314 220.72 56.0295 219.439C52.4276 218.158 49.5198 217.038 49.551 216.94C49.5823 216.842 52.5214 217.808 56.1295 219.089C59.7377 220.37 62.633 221.483 62.608 221.581Z" fill="#263238"/>
<path d="M62.6833 237.835C62.387 237.814 62.0935 237.758 61.8079 237.667C61.2451 237.534 60.4447 237.317 59.4504 237.037C57.4618 236.484 54.7354 235.637 51.765 234.573C48.7947 233.509 46.137 232.431 44.2172 231.598C43.2667 231.178 42.4976 230.828 41.9723 230.576C41.6935 230.464 41.4253 230.321 41.1719 230.149C41.4633 230.216 41.7481 230.314 42.0223 230.443L44.2985 231.353C46.2246 232.123 48.8885 233.166 51.8588 234.223C54.8292 235.28 57.5431 236.169 59.5067 236.792L61.8391 237.527C62.1284 237.6 62.411 237.704 62.6833 237.835Z" fill="#263238"/>
<g opacity="0.3">
<path d="M46.2247 235.313L45.9186 235.213C44.8244 234.856 43.6788 235.559 43.3597 236.784L32.5232 278.374C32.2041 279.598 32.8323 280.881 33.9264 281.238L34.2326 281.338C35.3267 281.695 36.4723 280.992 36.7914 279.767L47.628 238.177C47.9471 236.952 47.3188 235.67 46.2247 235.313Z" fill="black"/>
</g>
<g opacity="0.3">
<path d="M52.4982 237.59L52.192 237.49C51.0979 237.133 49.9522 237.836 49.6331 239.061L38.7966 280.651C38.4775 281.876 39.1057 283.158 40.1999 283.515L40.506 283.615C41.6001 283.973 42.7458 283.269 43.0649 282.045L53.9014 240.454C54.2205 239.23 53.5923 237.947 52.4982 237.59Z" fill="black"/>
</g>
<g opacity="0.3">
<path d="M58.1556 239.685L57.8498 239.584C56.757 239.222 55.6088 239.92 55.2853 241.143L44.2999 282.684C43.9764 283.908 44.6 285.193 45.6929 285.555L45.9987 285.656C47.0915 286.018 48.2396 285.32 48.5631 284.097L59.5486 242.556C59.8721 241.333 59.2484 240.047 58.1556 239.685Z" fill="black"/>
</g>
<path d="M79.5846 143.72C78.6283 143.54 77.6929 143.242 76.7956 142.831C75.8638 142.537 74.9657 142.124 74.1191 141.599C75.0725 141.783 76.0054 142.081 76.9019 142.488C77.8353 142.782 78.7354 143.195 79.5846 143.72Z" fill="#263238"/>
<path d="M85.0071 125.555C84.9603 125.888 84.887 126.216 84.7882 126.535C84.6069 127.235 84.3692 128.117 84.0753 129.209L81.574 138.309L81.524 138.484L81.3676 138.428L78.4849 137.301L75.5208 136.139L75.377 136.083L75.4207 135.922C76.3212 132.324 77.1154 129.167 77.7032 126.822C77.9908 125.737 78.2222 124.841 78.4036 124.169C78.4771 123.844 78.5732 123.525 78.6912 123.217C78.657 123.551 78.5963 123.881 78.5099 124.204L77.8845 126.885C77.328 129.216 76.5776 132.38 75.7146 135.985L75.6146 135.768L78.5849 136.93L81.4614 138.057L81.2551 138.176L83.8815 129.139C84.2067 128.054 84.5068 127.172 84.6819 126.5C84.7663 126.175 84.8751 125.859 85.0071 125.555Z" fill="#263238"/>
<path d="M269.457 54.3438C268.952 54.3448 268.451 54.2501 267.975 54.0638L260.314 51.0958C259.562 50.8016 258.893 50.2919 258.371 49.6177C257.85 48.9434 257.496 48.1281 257.344 47.2528L255.812 38.3418C255.662 37.4656 255.72 36.5605 255.981 35.7176C256.243 34.8747 256.697 34.1236 257.3 33.5398L263.429 27.6039C264.032 27.0212 264.761 26.626 265.543 26.4578C266.326 26.2895 267.134 26.354 267.887 26.6448L275.541 29.6128C276.294 29.9061 276.965 30.4153 277.488 31.0896C278.01 31.764 278.365 32.5798 278.518 33.4559L280.05 42.3668C280.197 43.243 280.137 44.1471 279.876 44.9893C279.615 45.8316 279.162 46.5829 278.562 47.1688L272.433 53.1048C271.606 53.9044 270.55 54.3442 269.457 54.3438ZM262.203 45.9018L269.363 48.7019L275.085 43.1579L273.653 34.7998L266.499 31.9998L260.765 37.5998L262.203 45.9018Z" fill="#E0E0E0"/>
<path d="M262.204 45.9021C262.152 45.7209 262.11 45.5362 262.079 45.3491L261.766 43.7041C261.497 42.2271 261.141 40.1481 260.659 37.6071C260.654 37.5832 260.655 37.5583 260.662 37.535C260.669 37.5116 260.681 37.4906 260.697 37.4741L266.4 31.8741C266.423 31.8606 266.449 31.8535 266.475 31.8535C266.501 31.8535 266.527 31.8606 266.55 31.8741L273.704 34.6741L273.816 34.8141V34.9331V35.0731L273.866 35.3461L273.96 35.8921C274.023 36.2491 274.079 36.5921 274.141 36.9701C274.266 37.6701 274.385 38.3701 274.504 39.0701C274.742 40.4701 274.973 41.8141 275.192 43.1091C275.197 43.1385 275.195 43.1689 275.186 43.1972C275.178 43.2255 275.162 43.2507 275.142 43.2701L269.439 48.8001C269.421 48.8117 269.4 48.8179 269.379 48.8179C269.359 48.8179 269.338 48.8117 269.32 48.8001L264.086 46.7001L262.679 46.1121C262.516 46.0527 262.357 45.9802 262.204 45.8951C262.382 45.9369 262.558 45.993 262.729 46.0631L264.174 46.5811L269.401 48.5411H269.282L274.986 42.9411L274.936 43.1091C274.71 41.8071 274.473 40.4631 274.235 39.0701C274.116 38.3701 273.991 37.6701 273.866 36.9701C273.804 36.6131 273.747 36.2701 273.685 35.8921L273.591 35.3461L273.541 35.0731V34.9331V34.8631V34.8141C273.541 34.8141 273.741 35.0731 273.641 34.9471L266.494 32.1471H266.644L260.897 37.6701L260.941 37.5371C261.347 40.0711 261.685 42.1361 261.922 43.6131C262.029 44.3131 262.116 44.8661 262.179 45.2861C262.204 45.4901 262.212 45.6963 262.204 45.9021Z" fill="#263238"/>
<path d="M269.458 54.3439C269.458 54.3439 269.727 54.3439 270.233 54.2319C270.963 54.0763 271.648 53.7231 272.228 53.2029L278.45 47.1059C279.131 46.448 279.617 45.5741 279.844 44.5999C279.967 44.0868 280.018 43.5555 279.995 43.0249C279.939 42.4717 279.856 41.9225 279.744 41.3799C279.35 39.1189 278.931 36.7109 278.494 34.1769C278.416 33.5431 278.263 32.9238 278.037 32.3359C277.794 31.7429 277.448 31.2101 277.018 30.769C276.589 30.3278 276.085 29.9871 275.536 29.7669L273.772 29.0669L270.152 27.6669L268.276 26.9669C267.681 26.687 267.045 26.5372 266.4 26.5259C265.752 26.5251 265.112 26.6828 264.524 26.9879C263.953 27.3087 263.43 27.7267 262.973 28.2269L260.078 31.0269L257.282 33.7359C256.431 34.6088 255.92 35.8199 255.857 37.1099C255.848 37.7347 255.911 38.3582 256.044 38.9649C256.151 39.5879 256.251 40.1969 256.357 40.7989C256.557 42.0029 256.757 43.1649 256.945 44.2989C257.132 45.4329 257.314 46.5249 257.508 47.5469C257.741 48.516 258.229 49.3843 258.908 50.0389C259.224 50.3408 259.576 50.5928 259.953 50.7879C260.322 50.9699 260.716 51.1029 261.078 51.2569L263.173 52.0829L266.525 53.4129C267.218 53.7262 267.928 53.9903 268.651 54.2039C269.151 54.3089 269.426 54.3019 269.426 54.3159C269.165 54.3515 268.9 54.3515 268.638 54.3159C267.907 54.1275 267.188 53.8819 266.487 53.5809L263.148 52.2999L261.047 51.5019C260.672 51.3549 260.29 51.2289 259.896 51.0399C259.498 50.8384 259.125 50.577 258.789 50.2629C258.068 49.5806 257.547 48.6707 257.295 47.6519C257.082 46.5879 256.913 45.5099 256.713 44.3829C256.513 43.2559 256.313 42.0869 256.088 40.8829C255.98 40.2903 255.873 39.6813 255.769 39.0559C255.628 38.4243 255.561 37.7749 255.569 37.1239C255.634 35.7418 256.179 34.4428 257.089 33.5049L259.878 30.7889L262.773 27.9889C263.023 27.7509 263.254 27.5129 263.523 27.2889C263.797 27.061 264.09 26.864 264.399 26.7009C265.022 26.3772 265.7 26.21 266.387 26.2109C267.068 26.2229 267.741 26.3797 268.37 26.6729L270.246 27.3729L273.866 28.7729L275.63 29.4729C276.225 29.7107 276.771 30.0797 277.237 30.5579C277.693 31.0269 278.061 31.5933 278.319 32.2239C278.555 32.8383 278.715 33.486 278.794 34.1489C279.211 36.6923 279.617 39.0956 280.013 41.3589C280.126 41.915 280.207 42.4785 280.257 43.0459C280.293 43.8518 280.163 44.6561 279.877 45.3965C279.59 46.137 279.156 46.7937 278.606 47.3159L272.315 53.3289C271.71 53.8468 270.998 54.1883 270.246 54.3229C269.985 54.3661 269.72 54.3731 269.458 54.3439Z" fill="#263238"/>
<path d="M216.159 39.7699C215.663 39.7685 215.174 39.6419 214.728 39.3995C214.282 39.1571 213.89 38.8052 213.582 38.3699L211.4 35.3249C211.04 34.8186 210.804 34.2157 210.716 33.5759C210.628 32.9361 210.692 32.2818 210.9 31.6779L212.15 28.0379C212.361 27.4355 212.709 26.9056 213.16 26.5014C213.611 26.0972 214.149 25.8328 214.721 25.7349L218.166 25.1399C218.738 25.043 219.322 25.1155 219.861 25.3501C220.399 25.5846 220.874 25.9732 221.236 26.4769L223.419 29.5289C223.779 30.0337 224.015 30.6355 224.103 31.2742C224.191 31.9128 224.127 32.5661 223.919 33.1689L222.668 36.8159C222.461 37.4187 222.117 37.9503 221.669 38.358C221.222 38.7657 220.687 39.0352 220.117 39.1399L216.665 39.7279C216.498 39.7562 216.328 39.7703 216.159 39.7699ZM218.66 27.9189H218.541L215.114 28.4999C214.976 28.5229 214.846 28.586 214.736 28.6831C214.626 28.7801 214.541 28.9076 214.489 29.0529L213.238 32.6999C213.189 32.8448 213.174 33.0016 213.195 33.1549C213.215 33.3083 213.272 33.453 213.357 33.5749L215.54 36.6199C215.627 36.7406 215.741 36.8337 215.871 36.8902C216 36.9466 216.14 36.9644 216.278 36.9419L219.729 36.3469C219.868 36.3245 219.999 36.2616 220.109 36.1645C220.218 36.0674 220.303 35.9395 220.355 35.7939L221.605 32.1539C221.656 32.0092 221.672 31.8521 221.651 31.6985C221.63 31.5448 221.574 31.4001 221.487 31.2789L219.304 28.2339C219.228 28.1337 219.133 28.0536 219.026 27.9991C218.919 27.9447 218.803 27.9173 218.685 27.9189H218.66Z" fill="#E0E0E0"/>
<path d="M218.685 27.919C218.773 27.8883 218.867 27.8883 218.954 27.919C219.063 27.952 219.163 28.0118 219.248 28.094C219.354 28.2114 219.454 28.3353 219.548 28.465L221.324 30.852L221.612 31.251C221.72 31.4157 221.781 31.6135 221.787 31.818C221.783 32.0195 221.74 32.2177 221.662 32.399C221.606 32.574 221.543 32.749 221.487 32.931C221.237 33.631 220.974 34.422 220.699 35.234C220.63 35.437 220.561 35.64 220.486 35.85C220.404 36.1029 220.239 36.3108 220.023 36.431C219.822 36.5149 219.612 36.5691 219.398 36.592L218.773 36.704C217.929 36.844 217.103 37.005 216.165 37.138C216.031 37.1384 215.897 37.1068 215.774 37.0452C215.652 36.9837 215.542 36.8936 215.452 36.781L215.04 36.2L214.233 35.08L213.464 33.988L213.27 33.722C213.196 33.6238 213.137 33.5127 213.095 33.393C213.01 33.1451 213.01 32.8709 213.095 32.623L213.908 30.334L214.277 29.298C214.33 29.1216 214.402 28.9525 214.489 28.794C214.589 28.6362 214.728 28.5146 214.889 28.444C216.09 28.199 217.003 28.101 217.66 28.003C217.995 27.9294 218.337 27.8966 218.679 27.905C218.596 27.9394 218.51 27.9629 218.423 27.975L217.685 28.143C217.059 28.283 216.071 28.437 214.977 28.682C214.86 28.7397 214.758 28.8316 214.683 28.948C214.613 29.0937 214.554 29.2459 214.508 29.403L214.158 30.446L213.37 32.749C213.313 32.9183 213.313 33.1047 213.37 33.274C213.457 33.4542 213.564 33.6213 213.689 33.771L214.489 34.87L215.296 35.99L215.702 36.557C215.762 36.6304 215.834 36.6889 215.915 36.7287C215.996 36.7685 216.083 36.7887 216.171 36.788L218.729 36.361L219.354 36.256C219.544 36.2427 219.731 36.2003 219.911 36.13C220.059 36.0512 220.174 35.9104 220.23 35.738C220.299 35.528 220.374 35.325 220.442 35.122C220.73 34.324 220.999 33.554 221.255 32.833C221.326 32.6603 221.389 32.4853 221.443 32.308C221.511 32.1624 221.551 32.0028 221.562 31.839C221.556 31.6898 221.515 31.5449 221.443 31.419L221.168 31.027L219.473 28.57C219.399 28.3984 219.288 28.2495 219.151 28.1362C219.013 28.0228 218.854 27.9483 218.685 27.919Z" fill="#263238"/>
<path d="M216.16 39.77C216.295 39.7355 216.433 39.7121 216.572 39.7L217.767 39.469L219.643 39.112C220.032 39.0644 220.415 38.9609 220.781 38.804C221.182 38.6188 221.544 38.3423 221.844 37.992C222.188 37.6086 222.453 37.1449 222.619 36.634C222.801 36.102 222.994 35.542 223.188 34.961C223.532 33.792 224.233 32.595 223.976 31.258C223.865 30.58 223.588 29.9499 223.176 29.438L221.925 27.702L221.3 26.806C221.101 26.5049 220.865 26.2363 220.599 26.008C220.058 25.5536 219.4 25.308 218.723 25.308C218.375 25.3224 218.028 25.3668 217.685 25.441L216.641 25.616L214.609 25.973C213.985 26.1245 213.418 26.486 212.983 27.009C212.773 27.2598 212.596 27.5426 212.458 27.849C212.326 28.15 212.22 28.5 212.107 28.815L211.438 30.712C211.205 31.2839 211.021 31.8792 210.888 32.49C210.814 33.0414 210.853 33.6044 211.001 34.1366C211.15 34.6689 211.404 35.1566 211.745 35.563L213.314 37.803C213.552 38.125 213.746 38.447 213.971 38.692C214.175 38.9161 214.404 39.1091 214.653 39.266C215.131 39.5502 215.657 39.7217 216.197 39.77C216.197 39.77 216.16 39.77 216.085 39.77C216.009 39.77 215.909 39.77 215.772 39.77C215.361 39.7284 214.962 39.5977 214.596 39.385C214.332 39.228 214.087 39.0353 213.865 38.811C213.619 38.5285 213.388 38.2318 213.171 37.922L211.563 35.717C211.196 35.2861 210.92 34.7674 210.758 34.1999C210.595 33.6324 210.55 33.0309 210.625 32.441C210.751 31.8039 210.933 31.1824 211.169 30.586L211.826 28.689C211.945 28.36 212.039 28.038 212.182 27.695C212.332 27.3561 212.523 27.0427 212.752 26.764C213.219 26.2012 213.823 25.8044 214.49 25.623C215.178 25.49 215.847 25.385 216.541 25.259L217.585 25.084C217.944 25.0035 218.308 24.9567 218.673 24.944C219.419 24.9364 220.146 25.2019 220.743 25.7C221.031 25.9456 221.285 26.2355 221.5 26.561L222.125 27.457C222.55 28.045 222.963 28.633 223.376 29.2C223.822 29.7572 224.119 30.4437 224.233 31.181C224.343 31.8882 224.274 32.6159 224.033 33.281C223.82 33.89 223.607 34.485 223.407 35.066C223.207 35.647 223.007 36.193 222.819 36.732C222.644 37.2585 222.369 37.7361 222.013 38.132C221.378 38.8147 220.546 39.2196 219.668 39.273L217.792 39.567C217.273 39.644 216.866 39.707 216.591 39.728C216.449 39.7611 216.304 39.7752 216.16 39.77Z" fill="#263238"/>
<path d="M277.079 30.6348C276.639 31.4821 276.096 32.2571 275.466 32.9378C274.912 33.7041 274.246 34.3597 273.496 34.8768C274.023 34.1028 274.602 33.375 275.228 32.6998C275.774 31.9353 276.395 31.2426 277.079 30.6348Z" fill="#263238"/>
<path d="M265.355 26.6099C265.764 27.4331 266.045 28.3277 266.187 29.2559C266.441 30.1609 266.553 31.1081 266.519 32.0559C266.238 31.1779 266.029 30.2737 265.893 29.3539C265.639 28.4596 265.459 27.5411 265.355 26.6099Z" fill="#263238"/>
<path d="M260.69 37.4391C259.871 37.2588 259.068 37.0012 258.288 36.6691C257.477 36.4461 256.682 36.1512 255.912 35.7871C257.594 35.9391 259.225 36.5031 260.69 37.4391Z" fill="#263238"/>
<path d="M259.357 49.5839C259.685 48.8519 260.106 48.1774 260.608 47.5819C261.039 46.915 261.552 46.321 262.134 45.8179C261.811 46.5527 261.389 47.2278 260.883 47.8199C260.453 48.4867 259.939 49.0808 259.357 49.5839Z" fill="#263238"/>
<path d="M269.888 53.4131C269.636 52.6926 269.488 51.9317 269.45 51.1591C269.3 50.4013 269.26 49.6213 269.332 48.8491C269.581 49.5729 269.729 50.3357 269.769 51.1101C269.916 51.8661 269.956 52.6432 269.888 53.4131Z" fill="#263238"/>
<path d="M278.786 44.4462C278.145 44.3625 277.522 44.159 276.941 43.8442C276.32 43.6452 275.734 43.3279 275.209 42.9062C276.47 43.1927 277.679 43.7132 278.786 44.4462Z" fill="#263238"/>
<path d="M402.928 98.1219C407.161 92.4099 411.395 86.6419 414.696 80.2019C417.998 73.7619 420.324 66.5659 420.493 59.1459C420.493 58.0189 420.087 50.2139 419.118 49.8989C418.43 49.6749 417.954 56.5699 417.392 57.0669C411.989 61.7989 408.481 68.8199 406.461 76.1559C404.56 83.3087 403.375 90.676 402.928 98.1219Z" fill="#263238"/>
<path d="M347.78 141.536C349.468 136.636 357.785 112.136 357.741 112.136C357.698 112.136 343.415 103.792 348.361 86.7961C350.738 78.5851 356.86 62.1281 362.55 47.3021C365.504 39.6207 370.933 33.4655 377.756 30.0607C384.58 26.656 392.298 26.2513 399.376 28.9271L400.833 29.4801C416.254 36.4801 419.593 55.0091 412.921 72.0681L382.28 151.518L355.428 142.229L347.78 141.536Z" fill="#FFBF9D"/>
<path d="M357.747 112.15C357.747 112.15 367.083 116.35 379.389 113.074C379.389 113.074 370.872 123.847 356.252 116.623L357.747 112.15Z" fill="#FF9A6C"/>
<path d="M362.525 63.6606C362.33 64.2886 362.361 64.977 362.612 65.5795C362.863 66.182 363.314 66.6513 363.869 66.8876C364.137 67.0155 364.424 67.0822 364.715 67.084C365.006 67.0858 365.294 67.0225 365.562 66.898C365.831 66.7734 366.074 66.5901 366.279 66.3587C366.483 66.1274 366.644 65.8526 366.752 65.5506C366.949 64.9227 366.918 64.2336 366.667 63.6306C366.416 63.0276 365.964 62.5585 365.408 62.3236C365.141 62.1948 364.853 62.1273 364.562 62.1251C364.271 62.1228 363.983 62.1859 363.714 62.3105C363.445 62.4352 363.202 62.6189 362.997 62.8508C362.793 63.0827 362.633 63.3581 362.525 63.6606Z" fill="#263238"/>
<path d="M363.637 55.5618C363.812 55.9818 365.857 55.2398 368.177 56.1288C370.497 57.0178 371.81 58.9288 372.154 58.7328C372.323 58.6418 372.223 57.9698 371.66 57.0808C370.892 55.9214 369.821 55.0578 368.596 54.6098C367.383 54.1409 366.067 54.1213 364.844 54.5538C363.943 54.8968 363.549 55.3728 363.637 55.5618Z" fill="#263238"/>
<path d="M382.903 72.8377C382.707 73.4646 382.738 74.1528 382.989 74.7546C383.24 75.3565 383.692 75.8243 384.248 76.0577C384.515 76.1865 384.803 76.254 385.093 76.2563C385.384 76.2585 385.673 76.1955 385.941 76.0708C386.21 75.9462 386.454 75.7625 386.658 75.5306C386.862 75.2987 387.023 75.0233 387.131 74.7207C387.326 74.0927 387.294 73.4044 387.043 72.8019C386.792 72.1993 386.341 71.7301 385.786 71.4937C385.518 71.3661 385.231 71.2997 384.94 71.2984C384.649 71.2971 384.36 71.3609 384.092 71.4861C383.823 71.6113 383.58 71.7954 383.376 72.0275C383.172 72.2596 383.011 72.5351 382.903 72.8377Z" fill="#263238"/>
<path d="M386.08 65.2148C386.249 65.6348 388.3 64.8998 390.62 65.7818C392.94 66.6638 394.247 68.5818 394.597 68.3928C394.759 68.2948 394.666 67.6228 394.103 66.7408C393.333 65.5796 392.26 64.7139 391.033 64.2628C389.82 63.7924 388.504 63.7727 387.281 64.2068C386.405 64.5498 385.992 65.0258 386.08 65.2148Z" fill="#263238"/>
<path d="M371.717 82.0498C371.774 81.9098 370.41 81.0838 368.172 79.8658C367.603 79.5718 367.077 79.2288 367.115 78.7318C367.152 78.2348 367.584 77.5768 368.103 76.9188L371.386 72.5228C375.995 66.2228 379.547 60.9938 379.315 60.7838C379.084 60.5738 375.169 65.5018 370.561 71.7808C369.441 73.3348 368.366 74.8118 367.346 76.2328C366.896 76.9328 366.252 77.6328 366.252 78.7248C366.268 78.9907 366.338 79.249 366.456 79.4805C366.574 79.712 366.737 79.9107 366.934 80.0618C367.234 80.2845 367.557 80.4655 367.897 80.6008C370.198 81.6298 371.661 82.1968 371.717 82.0498Z" fill="#263238"/>
<path d="M378.013 86.4319C377.638 86.2709 376.763 89.0919 374.024 90.2749C371.285 91.4579 368.665 90.1419 368.527 90.5269C368.439 90.6879 368.965 91.2969 370.084 91.7659C371.556 92.3441 373.162 92.3268 374.624 91.7169C376.024 91.1249 377.165 89.9481 377.807 88.4339C378.257 87.2999 378.188 86.4809 378.013 86.4319Z" fill="#263238"/>
<path d="M389.389 54.715C389.389 55.506 391.827 56.052 394.441 57.445C397.055 58.838 399.013 60.511 399.563 60.014C399.813 59.769 399.632 58.957 398.938 57.914C398.006 56.6247 396.824 55.5906 395.481 54.8906C394.138 54.1906 392.671 53.8432 391.19 53.875C390.064 53.973 389.395 54.344 389.389 54.715Z" fill="#263238"/>
<path d="M367.209 47.2809C367.44 48.0299 369.222 47.9809 371.154 48.6809C373.087 49.3809 374.594 50.4239 375.15 49.9479C375.407 49.7099 375.332 49.0239 374.788 48.1909C374.032 47.1598 373.021 46.4026 371.881 46.015C370.741 45.6275 369.524 45.6271 368.384 46.0139C367.521 46.3989 367.115 46.9239 367.209 47.2809Z" fill="#263238"/>
<path d="M407.881 84.1499C408.181 84.1499 419.305 84.6329 415.491 96.0499C411.676 107.467 402.19 100.845 402.284 100.509C402.378 100.173 407.881 84.1499 407.881 84.1499Z" fill="#FFBF9D"/>
<path d="M406.853 97.5059C406.91 97.5059 406.985 97.7229 407.235 98.0029C407.589 98.3849 408.063 98.596 408.554 98.5909C409.805 98.5909 411.331 97.0579 412.069 95.0139C412.424 94.0431 412.58 92.9953 412.525 91.9479C412.552 91.5483 412.489 91.1476 412.344 90.7812C412.199 90.4149 411.976 90.0943 411.694 89.8479C411.508 89.6953 411.28 89.622 411.051 89.6412C410.821 89.6605 410.606 89.771 410.443 89.9529C410.199 90.2189 410.186 90.4709 410.13 90.4709C410.074 90.4709 409.974 90.1839 410.212 89.7709C410.361 89.5151 410.58 89.321 410.837 89.2179C411.198 89.0984 411.586 89.141 411.919 89.3369C412.304 89.6089 412.621 89.9862 412.839 90.4332C413.058 90.8802 413.172 91.3822 413.169 91.8919C413.27 93.066 413.116 94.2502 412.719 95.3429C411.881 97.6179 410.111 99.3399 408.473 99.1999C408.168 99.1727 407.873 99.07 407.608 98.8993C407.343 98.7286 407.115 98.4941 406.941 98.2129C406.778 97.7999 406.81 97.5129 406.853 97.5059Z" fill="#FF9A6C"/>
<path d="M375.6 31.2509C374.299 29.5289 381.297 25.6509 386.055 25.3569C393.247 24.8809 403.258 26.9809 408.286 31.2019C414.352 36.2769 418.698 42.4929 419.736 50.8859C420.774 59.2789 419.292 67.9029 416.384 75.7289C415.496 78.1159 414.408 80.5309 412.557 82.0779C410.275 83.9889 406.998 84.4019 405.922 87.9369C405.744 88.5825 405.454 89.1822 405.067 89.7012C404.681 90.2203 404.206 90.6484 403.671 90.9609C401.045 92.3609 399.481 89.3159 399.15 86.7609C398.443 81.3289 400.019 75.8899 401.576 70.6609C402.683 66.9649 403.827 63.1919 405.953 60.0909C407.104 58.4039 408.517 56.9549 409.587 55.1909C410.656 53.4269 411.35 51.2219 410.837 49.1849C410.707 48.7357 410.537 48.3019 410.331 47.8899C409.386 45.8924 407.983 44.2122 406.267 43.0215C404.55 41.8308 402.582 41.1724 400.563 41.1139C394.041 40.9249 383.054 40.1059 381.272 36.8299C378.664 32.1119 378.483 29.6899 378.483 29.6899L375.6 31.2509Z" fill="#263238"/>
<path d="M409.594 24.2159C410.251 24.5869 425.615 35.2129 425.515 50.7109C425.415 66.2089 422.882 70.0029 422.882 70.0029C423.398 70.7133 423.819 71.5031 424.133 72.3479C424.546 73.5239 422.188 77.5139 420.168 76.1839C406.374 61.8549 387.363 53.6229 365.677 46.0839L349.318 39.5249C344.528 38.3559 343.334 36.3609 345.673 35.8219C347.467 35.4019 362.325 34.5619 362.325 34.5619L365.533 33.4559L375.538 25.5389C375.538 25.5389 375.151 23.7469 377.183 23.1659C379.215 22.5849 396.675 16.8659 409.594 24.2159Z" fill="#46467A"/>
<path d="M365.52 33.4839C365.52 33.4839 365.738 33.5819 366.145 33.7359L368.021 34.3939C369.634 34.9329 371.929 35.8429 374.756 37.0049C382.069 40.1556 389.123 44.0156 395.836 48.5409C402.545 53.0851 409.017 58.0538 415.221 63.4229C417.622 65.4599 419.53 67.1539 420.849 68.3229L422.381 69.6599C422.731 69.9609 422.925 70.1079 422.925 70.1079C422.925 70.1079 422.756 69.9259 422.412 69.6039L420.918 68.2039C419.611 67.0139 417.716 65.2919 415.334 63.2339C409.151 57.8016 402.678 52.7988 395.948 48.2539C389.215 43.7118 382.123 39.8714 374.762 36.7809C371.732 35.5094 368.648 34.409 365.52 33.4839Z" fill="#263238"/>
<g opacity="0.3">
<path d="M422.313 38.2998C422.313 38.2998 405.354 28.1358 395.986 29.3678L397.087 29.1998L388.332 30.0118C386.85 30.1518 385.156 30.2008 384.143 28.9898C384.143 28.9898 389.452 26.4698 397.837 26.5188C406.223 26.5678 418.53 29.8998 422.313 38.2998Z" fill="black"/>
</g>
<path d="M422.537 38.4681C422.161 37.8344 421.743 37.233 421.286 36.6691C420.065 35.1077 418.684 33.7122 417.172 32.5111C414.933 30.7159 412.47 29.3006 409.861 28.3111C406.683 27.0007 403.29 26.473 399.912 26.7641C398.179 26.9596 396.458 27.2776 394.76 27.7161C393.121 28.1291 391.527 28.4161 390.02 28.9061C388.638 29.4192 387.22 29.7986 385.78 30.0401C384.52 30.1795 383.249 29.9902 382.065 29.4871C377.632 27.8561 375.237 25.7911 375.537 25.5601C375.553 25.7612 375.636 25.9483 375.768 26.0851C376.128 26.479 376.532 26.8201 376.969 27.1001C378.561 28.1664 380.25 29.0372 382.009 29.6971C383.219 30.2205 384.519 30.4265 385.811 30.2991C387.267 30.0713 388.702 29.7036 390.101 29.2001C391.577 28.7451 393.19 28.4371 394.828 28.0241C396.516 27.6035 398.224 27.295 399.944 27.1001C403.281 26.8189 406.633 27.3319 409.78 28.6051C412.369 29.5745 414.82 30.9535 417.059 32.7001C418.57 33.8769 419.96 35.236 421.205 36.7531C421.649 37.2921 421.98 37.7261 422.193 38.0271C422.406 38.3281 422.537 38.4681 422.537 38.4681Z" fill="#263238"/>
<g opacity="0.3">
<path d="M425.315 57.1159C422.1 55.849 419.949 53.9799 416.991 51.964C413.865 49.8219 410.669 47.862 407.611 45.552C405.291 43.802 402.484 41.954 401.452 39.252C401.109 39.9075 400.924 40.6509 400.914 41.4102C400.905 42.1694 401.07 42.9186 401.396 43.585C402.052 44.985 404.835 47.484 406.023 48.387C412.783 53.532 417.479 57.046 425.033 60.623C425.194 59.4644 425.286 58.2952 425.308 57.123" fill="black"/>
</g>
<path d="M425.476 48.996C427.214 50.767 428.259 51.915 427.721 53.896C427.277 55.534 426.376 57.396 424.863 57.137C424.415 57.0206 423.991 56.8117 423.612 56.521L402.901 42.948C402.152 42.5803 401.544 41.9249 401.188 41.1C400.775 39.784 401.813 38.342 403.008 37.978C404.202 37.614 405.478 37.978 406.666 38.44C413.407 40.883 419.554 44.635 425.476 48.989" fill="#46467A"/>
<path d="M401.414 41.6037C401.223 41.199 401.132 40.7447 401.151 40.2877C401.198 39.6709 401.398 39.0812 401.73 38.586C402.062 38.0908 402.511 37.7102 403.027 37.4877C404.353 36.9837 406.11 37.3197 407.836 38.1037C409.562 38.8877 411.507 39.7767 413.464 40.7917C416.864 42.4796 420.122 44.5036 423.2 46.8397C424.376 47.7427 425.283 48.5407 425.914 49.0937L426.627 49.7447C426.708 49.825 426.796 49.8954 426.89 49.9547C426.89 49.9547 426.821 49.8567 426.665 49.6957L425.983 48.9957C425.358 48.4147 424.489 47.5957 423.319 46.6507C420.261 44.2487 417 42.1878 413.583 40.4977C411.594 39.4757 409.674 38.5937 407.911 37.8167C406.148 37.0397 404.34 36.7037 402.908 37.2707C402.366 37.513 401.897 37.925 401.557 38.4575C401.218 38.9899 401.023 39.6204 400.995 40.2737C400.987 40.6244 401.053 40.9723 401.189 41.2887C401.247 41.4076 401.323 41.5142 401.414 41.6037Z" fill="#263238"/>
<path d="M372.399 28.0518L386.475 33.0988L383.943 37.0538L368.854 30.8518L372.399 28.0518Z" fill="white"/>
<path d="M389.283 50.0667C389.314 49.9827 383.392 46.5667 376.044 42.4927C368.697 38.4187 362.693 35.1217 362.693 35.2057C362.693 35.2897 368.584 38.7057 375.932 42.7797C383.279 46.8537 389.245 50.1437 389.283 50.0667Z" fill="#263238"/>
<path d="M392.828 134.991L393.015 124.645L361.386 137.798C361.386 137.798 355.539 116.539 355.539 115.538L348.529 120.438L336.879 114.838L325.229 108.398L301.667 154.598L276.947 236.176L335.178 279.66L378.364 227.86L404.628 183.06L419.061 154.696L392.828 134.991Z" fill="#46467A"/>
<path d="M358.572 137.644C358.535 137.3 358.521 136.954 358.529 136.608C358.529 135.908 358.529 134.914 358.491 133.71L358.635 133.808C355.159 135.708 351.95 138.168 349.111 141.109L348.861 141.375V140.99C348.861 140.528 348.811 140.038 348.786 139.541C348.53 134.466 348.317 129.874 348.161 126.542C348.098 124.918 348.048 123.588 348.011 122.601C348.011 122.172 348.011 121.815 348.011 121.53C347.969 121.521 347.932 121.496 347.907 121.458C347.882 121.42 347.87 121.374 347.874 121.327C347.878 121.28 347.897 121.236 347.928 121.205C347.959 121.173 348 121.155 348.042 121.155C348.084 121.155 348.125 121.173 348.156 121.205C348.187 121.236 348.206 121.28 348.21 121.327C348.214 121.374 348.202 121.42 348.177 121.458C348.151 121.496 348.114 121.521 348.073 121.53C348.073 121.81 348.123 122.167 348.161 122.594C348.223 123.581 348.305 124.911 348.405 126.528C348.605 129.853 348.849 134.445 349.105 139.52C349.105 140.017 349.155 140.507 349.174 140.969L348.905 140.843C351.766 137.882 355.024 135.439 358.56 133.605L358.71 133.535V133.71C358.71 134.914 358.666 135.887 358.654 136.608C358.649 136.955 358.622 137.301 358.572 137.644Z" fill="#263238"/>
<path d="M389.914 135.488C389.802 135.576 389.68 135.648 389.552 135.705L388.495 136.272L384.58 138.281L371.598 144.777L365.433 147.829L365.17 147.955L365.22 147.64C365.729 144.358 365.968 141.031 365.933 137.7L366.077 137.798L363.156 139.387L362.375 139.793C362.2 139.884 362.106 139.926 362.1 139.912C362.176 139.842 362.26 139.783 362.35 139.737L363.106 139.275L365.989 137.595L366.127 137.511V137.7C366.215 141.058 366.005 144.418 365.501 147.731L365.289 147.542L371.448 144.476L384.468 138.071L388.432 136.167L389.514 135.67C389.64 135.591 389.775 135.53 389.914 135.488Z" fill="#263238"/>
<path d="M334.615 83.7158H96.4256C91.3936 83.7158 87.3145 88.2821 87.3145 93.9148V278.533C87.3145 284.166 91.3936 288.732 96.4256 288.732H334.615C339.647 288.732 343.726 284.166 343.726 278.533V93.9148C343.726 88.2821 339.647 83.7158 334.615 83.7158Z" fill="#455A64"/>
<path d="M77.291 275.488H355.095V280.969C355.095 284.273 353.923 287.443 351.835 289.779C349.748 292.116 346.917 293.429 343.964 293.429H88.4219C85.4698 293.429 82.6386 292.116 80.5512 289.779C78.4637 287.443 77.291 284.273 77.291 280.969V275.488Z" fill="#455A64"/>
<path d="M336.128 91.8638H94.1992V264.995H336.128V91.8638Z" fill="#263238"/>
<path d="M190.244 273.57L193.69 280.199H242.197L245.399 273.57H190.244Z" fill="#263238"/>
<path d="M329.594 97.7227H101.223C100.093 97.7227 99.1777 98.7475 99.1777 100.012V262.146C99.1777 263.41 100.093 264.435 101.223 264.435H329.594C330.724 264.435 331.639 263.41 331.639 262.146V100.012C331.639 98.7475 330.724 97.7227 329.594 97.7227Z" fill="#EBEBEB"/>
<path d="M331.395 264.68H98.9336L99.1775 110.183H331.395V264.68Z" fill="#FAFAFA"/>
<path d="M118.713 104.163C118.695 104.582 118.567 104.985 118.346 105.323C118.125 105.661 117.82 105.919 117.469 106.066C117.119 106.212 116.737 106.239 116.372 106.145C116.008 106.051 115.675 105.839 115.417 105.536C115.159 105.233 114.986 104.851 114.919 104.439C114.853 104.026 114.896 103.601 115.043 103.216C115.19 102.831 115.435 102.502 115.747 102.271C116.06 102.04 116.426 101.917 116.8 101.916C117.32 101.931 117.813 102.175 118.172 102.597C118.53 103.018 118.725 103.581 118.713 104.163Z" fill="#263238"/>
<path d="M107.106 104.163C107.088 104.582 106.96 104.985 106.739 105.323C106.518 105.661 106.213 105.919 105.862 106.066C105.511 106.212 105.13 106.239 104.765 106.145C104.4 106.051 104.068 105.839 103.81 105.536C103.551 105.233 103.378 104.851 103.312 104.439C103.245 104.026 103.288 103.601 103.435 103.216C103.583 102.831 103.827 102.502 104.14 102.271C104.452 102.04 104.818 101.917 105.192 101.916C105.712 101.931 106.205 102.175 106.564 102.597C106.923 103.018 107.118 103.581 107.106 104.163Z" fill="#263238"/>
<path d="M113.073 104.163C113.054 104.582 112.927 104.985 112.706 105.323C112.485 105.661 112.18 105.919 111.829 106.066C111.478 106.212 111.097 106.239 110.732 106.145C110.367 106.051 110.035 105.839 109.777 105.536C109.518 105.233 109.345 104.851 109.279 104.439C109.212 104.026 109.255 103.601 109.402 103.216C109.549 102.831 109.794 102.502 110.107 102.271C110.419 102.04 110.785 101.917 111.159 101.916C111.679 101.931 112.172 102.175 112.531 102.597C112.89 103.018 113.085 103.581 113.073 104.163Z" fill="#263238"/>
<path d="M341.525 273.57C341.525 273.682 284.62 273.766 214.426 273.766C144.232 273.766 87.3145 273.682 87.3145 273.57C87.3145 273.458 144.22 273.367 214.426 273.367C284.632 273.367 341.525 273.458 341.525 273.57Z" fill="#263238"/>
<path d="M190.438 139.8C194.218 137.246 198.285 135.268 202.532 133.92L205.034 120.515L225.257 120.116L228.171 133.416C232.457 134.6 236.582 136.418 240.44 138.82L250.664 131.323L265.216 147.052L258.887 158.763C261.17 162.995 262.936 167.551 264.14 172.308L276.109 175.108L276.465 197.746L264.584 201.008C263.523 205.792 261.898 210.396 259.75 214.7L266.454 226.145L252.403 242.434L241.953 235.343C238.172 237.898 234.103 239.875 229.853 241.223L227.352 254.628L207.122 255.02L204.214 241.72C199.94 240.548 195.824 238.742 191.977 236.351L181.752 243.855L167.201 228.126L173.536 216.429C171.251 212.196 169.482 207.641 168.276 202.884L156.308 200.084L155.951 177.446L167.833 174.184C168.89 169.386 170.513 164.767 172.66 160.45L165.963 149.005L180.014 132.716L190.438 139.8ZM201.219 169.963C198.238 173.419 196.24 177.787 195.477 182.514C194.714 187.242 195.22 192.116 196.932 196.521C198.644 200.927 201.484 204.665 205.094 207.263C208.703 209.862 212.92 211.204 217.211 211.119C221.502 211.035 225.674 209.529 229.2 206.79C232.726 204.052 235.447 200.205 237.02 195.735C238.593 191.265 238.946 186.374 238.035 181.679C237.125 176.985 234.991 172.698 231.904 169.361C229.853 167.146 227.432 165.405 224.78 164.238C222.128 163.071 219.296 162.499 216.446 162.557C213.597 162.615 210.786 163.301 208.173 164.575C205.56 165.849 203.197 167.687 201.219 169.984V169.963Z" fill="#E0E0E0"/>
<path d="M271.238 148.459C271.515 146.784 271.988 145.158 272.645 143.622L270.144 139.842L274.671 133.906L278.423 136.104C279.674 135.139 281.035 134.364 282.469 133.801L283.094 129.132L290.042 128.523L291.293 133.024C292.789 133.333 294.243 133.865 295.614 134.606L298.99 131.806L304.293 136.881L302.33 141.081C303.195 142.483 303.889 144.009 304.393 145.617L308.558 146.317L309.102 154.101L305.081 155.501C304.807 157.177 304.331 158.804 303.668 160.338L306.169 164.125L301.642 170.054L297.89 167.856C296.637 168.825 295.274 169.602 293.838 170.166L293.212 174.835L286.265 175.444L285.014 170.936C283.518 170.629 282.064 170.099 280.693 169.361L277.31 172.161L272.02 167.03L273.983 162.83C273.119 161.427 272.425 159.902 271.92 158.294L267.755 157.594L267.211 149.81L271.232 148.41L271.238 148.459ZM280.662 150.818C280.513 152.569 280.86 154.327 281.651 155.846C282.443 157.364 283.641 158.567 285.076 159.283C286.51 159.999 288.109 160.194 289.648 159.838C291.186 159.483 292.587 158.597 293.651 157.303C294.715 156.01 295.39 154.376 295.581 152.63C295.771 150.885 295.468 149.116 294.713 147.574C293.958 146.032 292.789 144.794 291.373 144.035C289.956 143.276 288.362 143.033 286.815 143.342C285.201 143.664 283.725 144.57 282.614 145.92C281.502 147.27 280.817 148.99 280.662 150.818Z" fill="#E0E0E0"/>
<path d="M118.951 226.6C119.002 224.589 119.294 222.595 119.82 220.671L116.275 216.8L120.615 208.974L125.317 210.794C126.63 209.414 128.103 208.237 129.694 207.294L129.657 201.729L137.674 199.629L139.844 204.634C141.64 204.69 143.422 205.017 145.14 205.607L148.636 201.638L155.627 206.496L154.001 211.76C155.234 213.23 156.285 214.878 157.128 216.66L162.099 216.618L163.975 225.585L159.498 228C159.442 230.011 159.148 232.005 158.622 233.929L162.168 237.835L157.828 245.668L153.126 243.848C151.813 245.229 150.341 246.406 148.748 247.348L148.786 252.913L140.775 255.013L138.599 250.008C136.808 249.938 135.032 249.599 133.321 249L129.832 252.969L122.835 248.111L124.46 242.847C123.228 241.377 122.176 239.729 121.334 237.947L116.331 237.989L114.455 229.022L118.926 226.586L118.951 226.6ZM130.539 229.12C130.94 231.021 131.836 232.746 133.114 234.078C134.391 235.409 135.992 236.287 137.714 236.601C139.437 236.914 141.204 236.649 142.792 235.839C144.381 235.029 145.719 233.711 146.638 232.05C147.557 230.389 148.015 228.46 147.956 226.508C147.896 224.555 147.321 222.666 146.303 221.079C145.285 219.493 143.87 218.279 142.236 217.592C140.602 216.905 138.823 216.776 137.123 217.22C135.99 217.515 134.92 218.059 133.975 218.819C133.03 219.579 132.229 220.54 131.617 221.648C131.005 222.756 130.595 223.988 130.41 225.274C130.225 226.56 130.269 227.874 130.539 229.141V229.12Z" fill="#E0E0E0"/>
<path d="M133.34 151.826C133.545 150.561 133.902 149.334 134.403 148.179L132.527 145.323L135.942 140.85L138.756 142.509C139.7 141.78 140.726 141.193 141.807 140.766L142.27 137.266L147.51 136.804L148.448 140.199C149.576 140.434 150.672 140.834 151.706 141.389L154.258 139.289L158.247 143.111L156.772 146.261C157.423 147.316 157.945 148.465 158.322 149.677L161.449 150.188L161.862 156.054L158.835 157.076C158.628 158.338 158.273 159.565 157.778 160.723L159.654 163.572L156.24 168.045L153.426 166.386C152.483 167.118 151.457 167.704 150.374 168.129L149.918 171.629L144.678 172.084L143.733 168.689C142.604 168.459 141.508 168.059 140.475 167.499L137.93 169.599L133.934 165.777L135.41 162.627C134.758 161.571 134.237 160.422 133.859 159.211L130.733 158.693L130.326 152.827L133.359 151.777L133.34 151.826ZM140.438 154.675C140.526 155.916 140.941 157.1 141.63 158.077C142.319 159.054 143.252 159.781 144.31 160.166C145.367 160.55 146.503 160.575 147.574 160.238C148.644 159.9 149.601 159.215 150.325 158.269C151.048 157.323 151.504 156.158 151.636 154.922C151.768 153.686 151.57 152.434 151.067 151.324C150.564 150.213 149.778 149.295 148.809 148.684C147.84 148.073 146.731 147.797 145.622 147.892C144.883 147.955 144.163 148.18 143.502 148.555C142.841 148.93 142.253 149.448 141.771 150.078C141.29 150.708 140.924 151.439 140.695 152.228C140.466 153.016 140.379 153.848 140.438 154.675Z" fill="#EBEBEB"/>
<path d="M271.501 215.001C271.682 213.915 271.989 212.861 272.414 211.865L270.782 209.415L273.715 205.572L276.135 206.972C276.944 206.343 277.826 205.84 278.755 205.474L279.149 202.45L283.651 202.058L284.458 204.977C285.428 205.176 286.37 205.52 287.259 205.999L289.448 204.172L292.881 207.455L291.63 210.157C292.192 211.065 292.642 212.054 292.969 213.097L295.67 213.538L296.02 218.578L293.413 219.481C293.235 220.567 292.928 221.622 292.5 222.617L294.132 225.067L291.199 228.903L288.785 227.503C287.972 228.128 287.089 228.632 286.159 229.001L285.765 232.018L281.262 232.41L280.456 229.498C279.486 229.295 278.544 228.952 277.654 228.476L275.466 230.303L272.02 227.02L273.271 224.318C272.709 223.411 272.259 222.425 271.932 221.385L269.237 220.944L268.881 215.904L271.488 215.001H271.501ZM277.598 217.444C277.672 218.515 278.028 219.537 278.622 220.382C279.216 221.226 280.02 221.854 280.933 222.185C281.846 222.517 282.827 222.538 283.75 222.246C284.674 221.953 285.499 221.36 286.121 220.541C286.743 219.723 287.134 218.717 287.244 217.649C287.354 216.582 287.179 215.502 286.74 214.546C286.302 213.591 285.619 212.802 284.78 212.281C283.941 211.76 282.982 211.53 282.025 211.62C280.749 211.737 279.567 212.416 278.737 213.508C277.907 214.6 277.498 216.015 277.598 217.444Z" fill="#EBEBEB"/>
<path d="M216.197 222.596H185.099C183.271 222.591 181.476 222.049 179.894 221.024C178.312 219.999 176.998 218.527 176.083 216.756C175.169 214.984 174.685 212.975 174.682 210.929C174.678 208.883 175.154 206.871 176.063 205.096L191.621 174.933L207.173 144.77C208.09 142.995 209.408 141.522 210.995 140.498C212.581 139.473 214.381 138.934 216.212 138.934C218.044 138.934 219.843 139.473 221.43 140.498C223.016 141.522 224.334 142.995 225.252 144.77L240.81 174.933L256.368 205.096C257.277 206.872 257.753 208.884 257.749 210.931C257.745 212.977 257.261 214.987 256.346 216.759C255.431 218.531 254.116 220.002 252.533 221.027C250.95 222.051 249.154 222.592 247.326 222.596H216.197Z" fill="#46467A"/>
<path d="M249.69 208.554C249.69 208.554 249.771 208.729 249.927 209.093C250.194 209.822 250.296 210.614 250.224 211.398C250.152 212.181 249.909 212.933 249.515 213.587C249.205 214.102 248.808 214.545 248.345 214.889C247.808 215.272 247.193 215.498 246.557 215.547C241.254 215.61 233.6 215.596 224.132 215.624L190.877 215.666H186.125C185.277 215.655 184.453 215.351 183.766 214.794C183.08 214.237 182.564 213.456 182.291 212.558C182.002 211.66 181.947 210.689 182.135 209.758C182.185 209.527 182.254 209.296 182.323 209.058C182.391 208.82 182.504 208.617 182.598 208.407L183.223 207.182C184.024 205.537 184.836 203.885 185.649 202.212L195.73 181.499L205.873 160.8C207.503 157.454 209.108 154.171 210.688 150.951C211.088 150.153 211.457 149.348 211.882 148.557C212.305 147.749 212.908 147.078 213.633 146.611C214.343 146.155 215.141 145.896 215.959 145.855C216.776 145.813 217.591 145.991 218.336 146.373C219.074 146.747 219.718 147.319 220.212 148.039C220.639 148.765 221.025 149.52 221.368 150.3C222.1 151.798 222.825 153.275 223.532 154.731C224.958 157.643 226.336 160.468 227.666 163.208C230.336 168.675 232.818 173.771 235.082 178.419C239.609 187.722 243.268 195.254 245.8 200.469L248.702 206.468C249.027 207.168 249.277 207.672 249.446 208.036C249.615 208.4 249.696 208.575 249.696 208.575C249.696 208.575 249.596 208.4 249.421 208.05L248.645 206.503L245.688 200.532C243.136 195.331 239.434 187.827 234.882 178.545L227.434 163.348L223.282 154.885C222.569 153.429 221.85 151.952 221.112 150.454C220.768 149.697 220.386 148.964 219.968 148.256C219.506 147.584 218.905 147.048 218.217 146.695C217.516 146.335 216.749 146.167 215.979 146.206C215.209 146.245 214.458 146.489 213.789 146.919C213.112 147.362 212.547 147.994 212.151 148.753C211.738 149.516 211.363 150.335 210.969 151.133L206.154 160.982C202.89 167.674 199.501 174.597 196.036 181.695L185.912 202.394C185.093 204.067 184.286 205.726 183.479 207.364C183.04 208.135 182.693 208.969 182.448 209.842C182.269 210.714 182.319 211.625 182.592 212.467C182.839 213.3 183.313 214.026 183.948 214.542C184.583 215.058 185.346 215.339 186.131 215.344H190.883L224.139 215.379L246.557 215.414C247.171 215.373 247.767 215.162 248.289 214.798C248.745 214.467 249.138 214.038 249.446 213.538C249.927 212.745 250.184 211.808 250.184 210.85C250.176 210.052 250.007 209.267 249.69 208.554Z" fill="#263238"/>
<path d="M211.156 202.1C211.156 199.013 213.357 196.71 216.49 196.71C219.623 196.71 221.774 199.013 221.774 202.1C221.774 205.187 219.623 207.595 216.49 207.595C213.357 207.595 211.156 205.145 211.156 202.1ZM211.206 170.481H221.774L219.998 193.777H212.938L211.206 170.481Z" fill="white"/>
<path d="M217.684 141.284C217.045 141.042 216.381 140.887 215.708 140.822C214.073 140.782 212.477 141.381 211.193 142.516C209.94 143.685 208.931 145.148 208.236 146.8C207.667 148.06 207.398 148.9 207.348 148.865C207.365 148.658 207.409 148.455 207.479 148.263C207.635 147.726 207.819 147.201 208.029 146.688C208.69 144.954 209.713 143.422 211.012 142.222C212.35 141.033 214.035 140.444 215.74 140.57C216.25 140.613 216.751 140.75 217.222 140.976C217.528 141.137 217.697 141.263 217.684 141.284Z" fill="white"/>
<path d="M204.678 154.08C204.806 153.476 205.038 152.905 205.359 152.4C205.816 151.539 206.247 150.881 206.329 150.93C206.197 151.525 205.963 152.086 205.641 152.582C205.409 153.146 205.082 153.655 204.678 154.08Z" fill="white"/>
<g opacity="0.3">
<path d="M231.805 157.482L183.347 190.9L177.057 203.108L235.225 164.111L231.805 157.482Z" fill="white"/>
</g>
<g opacity="0.3">
<path d="M239.433 172.294L175.205 214.7C175.463 215.812 175.939 216.845 176.6 217.724L240.565 174.492L239.433 172.294Z" fill="white"/>
</g>
<path d="M398.163 251.38C395.721 248.368 392.557 246.206 389.047 245.154C385.537 244.101 381.831 244.202 378.371 245.444L372.387 238.094L371.555 237.051L324.199 178.888C325.53 175.436 326.015 171.649 325.606 167.917C325.197 164.185 323.907 160.642 321.869 157.653C319.832 154.663 317.12 152.335 314.012 150.908C310.905 149.48 307.514 149.005 304.188 149.53L301.874 150.559L309.922 156.6L309.491 166.435L302.981 173.05L294.195 172.567L288.454 165.483L286.084 166.526C285.403 172.455 288.955 179.931 292.826 184.726C295.263 187.734 298.422 189.894 301.926 190.948C305.43 192.001 309.13 191.905 312.586 190.669L360.737 249.805L362.213 251.646L366.778 257.246C365.35 260.972 364.908 265.078 365.506 269.077C366.103 273.075 367.715 276.797 370.148 279.8C374 284.56 379.115 287.738 384.437 287.577L386.813 286.541L381.066 279.45L381.498 269.65L388.008 263.035L396.762 263.511L400.127 271.638L402.503 270.595C403.236 267.239 403.223 263.733 402.467 260.384C401.71 257.034 400.233 253.943 398.163 251.38Z" fill="#E0E0E0"/>
<g opacity="0.3">
<path d="M398.163 251.38C395.721 248.368 392.557 246.206 389.047 245.154C385.537 244.101 381.831 244.202 378.371 245.444L372.387 238.094L371.555 237.051L324.199 178.888C325.53 175.436 326.015 171.649 325.606 167.917C325.197 164.185 323.907 160.642 321.869 157.653C319.832 154.663 317.12 152.335 314.012 150.908C310.905 149.48 307.514 149.005 304.188 149.53L301.874 150.559L309.922 156.6L309.491 166.435L302.981 173.05L294.195 172.567L288.454 165.483L286.084 166.526C285.403 172.455 288.955 179.931 292.826 184.726C295.263 187.734 298.422 189.894 301.926 190.948C305.43 192.001 309.13 191.905 312.586 190.669L360.737 249.805L362.213 251.646L366.778 257.246C365.35 260.972 364.908 265.078 365.506 269.077C366.103 273.075 367.715 276.797 370.148 279.8C374 284.56 379.115 287.738 384.437 287.577L386.813 286.541L381.066 279.45L381.498 269.65L388.008 263.035L396.762 263.511L400.127 271.638L402.503 270.595C403.236 267.239 403.223 263.733 402.467 260.384C401.71 257.034 400.233 253.943 398.163 251.38Z" fill="black"/>
</g>
<path d="M395.785 252.416C393.345 249.404 390.181 247.243 386.672 246.192C383.163 245.14 379.458 245.243 376 246.487L370.009 239.13L369.177 238.087L321.821 179.924C323.152 176.472 323.639 172.685 323.229 168.953C322.82 165.221 321.531 161.678 319.493 158.69C317.455 155.701 314.743 153.373 311.635 151.947C308.527 150.52 305.136 150.046 301.81 150.573L307.551 157.657L307.126 167.457L300.603 174.1L291.849 173.624L286.108 166.54C285.314 170.192 285.404 174.014 286.367 177.615C287.331 181.215 289.134 184.464 291.591 187.025C294.047 189.587 297.069 191.371 300.346 192.192C303.623 193.013 307.035 192.842 310.233 191.698L358.384 250.834L359.866 252.675L364.431 258.275C363.106 261.725 362.624 265.509 363.036 269.236C363.448 272.964 364.739 276.502 366.776 279.487C368.813 282.472 371.523 284.796 374.627 286.221C377.732 287.647 381.119 288.122 384.442 287.598L378.695 280.5L379.12 270.7L385.636 264.085L394.391 264.568L400.131 271.652C400.869 268.292 400.858 264.781 400.1 261.427C399.343 258.073 397.861 254.979 395.785 252.416Z" fill="#E0E0E0"/>
<path d="M395.786 252.416C395.786 252.416 396.061 252.752 396.58 253.431C397.319 254.465 397.974 255.57 398.537 256.735C400.711 261.309 401.311 266.616 400.226 271.652V271.792L400.138 271.687L394.391 264.61L394.441 264.645L385.687 264.176H385.749L379.246 270.798V270.721C379.121 273.773 378.977 277.098 378.827 280.556V280.465L384.524 287.5L384.674 287.682L384.455 287.717C381.284 288.233 378.048 287.841 375.049 286.579C372.049 285.317 369.384 283.226 367.302 280.5C365.036 277.554 363.543 273.963 362.987 270.126C362.397 266.103 362.844 261.975 364.275 258.226V258.394L310.065 191.831L310.234 191.88C306.808 193.092 303.148 193.208 299.666 192.216C294.816 190.812 290.654 187.328 288.08 182.517C285.506 177.706 284.726 171.954 285.909 166.505L285.984 166.169L286.19 166.421L291.93 173.505L291.818 173.449L300.604 173.925L300.485 173.974L307.039 167.352L306.982 167.478C307.126 164.16 307.27 160.891 307.414 157.643L307.451 157.769L301.711 150.685L301.517 150.44L301.804 150.398C305.263 149.851 308.789 150.378 311.998 151.921C315.207 153.464 317.975 155.964 320.002 159.148C321.94 162.186 323.129 165.743 323.447 169.459C323.743 173.041 323.238 176.649 321.978 179.959V179.791L376.1 246.403H376.025C378.601 245.482 381.323 245.189 384.009 245.542C386.695 245.896 389.281 246.889 391.596 248.454C392.772 249.258 393.87 250.196 394.873 251.254C395.498 252.003 395.836 252.388 395.836 252.388L394.848 251.282C393.837 250.229 392.735 249.292 391.559 248.482C389.25 246.941 386.674 245.968 384.004 245.628C381.333 245.287 378.628 245.587 376.069 246.508H376.025V246.466L321.803 179.966L321.74 179.889L321.778 179.798C323.018 176.527 323.512 172.962 323.216 169.424C322.903 165.764 321.729 162.261 319.814 159.274C317.819 156.141 315.094 153.682 311.936 152.165C308.777 150.648 305.307 150.131 301.905 150.671L301.998 150.384L307.664 157.538L307.708 157.587V157.664C307.57 160.903 307.428 164.169 307.282 167.464V167.541L307.232 167.59L300.723 174.205L300.673 174.254H300.604L291.849 173.771H291.78L291.737 173.715L285.99 166.631L286.271 166.554C285.486 170.173 285.575 173.961 286.528 177.529C287.482 181.097 289.266 184.317 291.698 186.859C294.129 189.4 297.121 191.173 300.366 191.993C303.612 192.814 306.993 192.654 310.165 191.53H310.259L310.334 191.614C330.02 215.82 348.479 238.479 364.507 258.205L364.569 258.282L364.532 258.38C363.125 262.067 362.68 266.125 363.25 270.084C363.798 273.77 365.21 277.227 367.341 280.104C369.472 282.98 372.246 285.172 375.381 286.457C378.273 287.628 381.378 287.989 384.424 287.507L384.348 287.724L378.614 280.64L378.583 280.598V280.5C378.733 277.049 378.877 273.724 379.014 270.7V270.651V270.616L385.537 264.015H385.574L394.329 264.505C396.43 267.109 398.362 269.496 400.057 271.603H399.944C401.038 266.598 400.462 261.319 398.325 256.756C397.77 255.591 397.128 254.481 396.405 253.438C396.042 252.773 395.786 252.416 395.786 252.416Z" fill="#263238"/>
<path d="M319.665 183.319C319.621 183.505 319.551 183.682 319.458 183.844C319.239 184.299 318.995 184.739 318.727 185.16C316.953 187.983 314.454 190.134 311.56 191.327C311.128 191.509 310.685 191.659 310.235 191.775C310.073 191.835 309.904 191.866 309.734 191.866C309.734 191.803 310.416 191.593 311.479 191.089C314.268 189.789 316.705 187.695 318.545 185.013C319.252 183.984 319.615 183.291 319.665 183.319Z" fill="#263238"/>
<path d="M372.549 208.582L354.564 199.202L338.487 196.955L344.39 202.555C344.39 202.555 323.604 210.668 323.241 212.495C322.879 214.322 324.88 219.236 328.544 218.326C328.544 218.326 326.487 221.126 327.343 224.213C328.2 227.3 330.095 227.881 333.597 227.16C333.597 227.16 331.221 231.143 333.084 233.173C334.948 235.203 337.849 234.692 337.849 234.692C337.849 234.692 337.887 239.543 340.175 239.963C342.464 240.383 348.842 239.886 351.225 239.067L363.325 234.867L371.167 232.9L372.549 208.582Z" fill="#FFBF9D"/>
<path d="M339.442 214.742C339.511 215.008 337.116 216.016 334.102 217.003C331.088 217.99 328.574 218.564 328.505 218.298C328.437 218.032 330.832 217.017 333.846 216.037C336.86 215.057 339.374 214.476 339.442 214.742Z" fill="#FF9A6C"/>
<path d="M342.501 224.311C342.569 224.577 340.675 225.452 338.261 226.271C335.847 227.09 333.827 227.524 333.752 227.258C333.677 226.992 335.584 226.117 337.998 225.305C340.412 224.493 342.432 224.052 342.501 224.311Z" fill="#FF9A6C"/>
<path d="M345.247 232.27C345.291 232.571 343.565 232.97 341.539 233.544C339.513 234.118 337.931 234.944 337.787 234.657C337.643 234.37 339.131 233.215 341.289 232.557C343.446 231.899 345.216 232.025 345.247 232.27Z" fill="#FF9A6C"/>
<path d="M347.515 201.75C347.584 202.023 345.227 202.982 342.306 204.109C339.386 205.236 337.004 206.097 336.904 205.838C336.804 205.579 339.067 204.291 342.019 203.157C344.97 202.023 347.453 201.484 347.515 201.75Z" fill="#FF9A6C"/>
<path d="M369.159 206.818L408.111 222.61L405.835 252.535L362.949 233.18L369.159 206.818Z" fill="#FFBF9D"/>
<path d="M419.135 154.451C419.135 154.451 424.213 160.324 427.171 170.887C430.129 181.45 444.055 226.229 443.717 240.474C443.348 255.209 434.487 265.723 415.014 259.899C403.396 256.399 389.551 250.799 389.551 250.799L399.394 214.581L407.091 216.8L394.66 190.676L419.135 154.451Z" fill="#46467A"/>
<path d="M410.218 171.566C410.293 171.629 404.903 180.218 398.187 190.753C391.471 201.288 385.974 209.8 385.899 209.73C385.824 209.66 391.215 201.078 397.931 190.543C404.647 180.008 410.15 171.51 410.218 171.566Z" fill="#263238"/>
<path d="M425.127 221.7C425.127 221.7 424.789 221.518 424.182 221.203C423.319 220.771 422.426 220.418 421.512 220.146C420.355 219.789 418.955 219.446 417.397 219.075L412.345 217.829C408.762 216.933 405.516 216.1 403.177 215.477L400.407 214.721C400.064 214.647 399.727 214.54 399.4 214.399C399.748 214.431 400.093 214.494 400.432 214.588L403.227 215.225C405.585 215.785 408.855 216.576 412.42 217.472L417.466 218.753C419.017 219.145 420.418 219.509 421.575 219.901C422.493 220.199 423.385 220.593 424.239 221.077C424.469 221.209 424.693 221.356 424.908 221.518C424.987 221.568 425.061 221.629 425.127 221.7Z" fill="#263238"/>
<g opacity="0.3">
<path d="M435.081 223.296C434.957 222.436 434.648 221.623 434.182 220.926C433.716 220.229 433.106 219.668 432.405 219.292C430.996 218.546 429.48 218.091 427.927 217.948C420.93 216.87 413.851 216.548 406.791 216.275L407.416 216.59C416.139 218.395 424.676 221.181 432.899 224.906C433.349 225.185 433.879 225.256 434.374 225.102C434.643 224.917 434.854 224.645 434.98 224.323C435.107 224 435.142 223.642 435.081 223.296Z" fill="black"/>
</g>
<g opacity="0.3">
<path d="M274.608 84.4438C268.042 83.1908 260.188 85.3258 253.622 84.0728C252.646 83.8908 251.571 83.7158 250.708 84.2758C249.67 84.9408 249.313 86.4248 249.263 87.7758C249.237 89.6295 249.557 91.4688 250.203 93.1758C250.849 94.8827 251.807 96.4196 253.015 97.6878C255.474 100.204 258.545 101.846 261.839 102.406C264.459 102.903 267.279 102.805 269.612 101.391C273.714 98.8989 275.684 89.4908 274.608 84.4438Z" fill="black"/>
</g>
<path d="M249.126 97.8908C249.126 97.8908 245.142 92.6618 244.567 90.2538C244.185 88.6578 244.373 84.1848 244.567 81.3498C244.611 80.3945 244.904 79.4745 245.409 78.7033C245.915 77.9321 246.611 77.3434 247.412 77.0098C247.647 76.8795 247.909 76.8231 248.17 76.8465C248.431 76.8699 248.681 76.9724 248.894 77.1428C249.435 76.3216 250.042 75.5578 250.708 74.8608C252.271 73.0688 253.015 71.8578 256.454 72.9708C256.454 72.9708 258.987 69.9818 260.444 70.2058C261.422 70.3678 262.389 70.6016 263.339 70.9058C263.339 70.9058 268.886 70.6398 270.024 72.6138C270.671 73.505 271.542 74.1565 272.526 74.4828C273.393 74.8255 274.19 75.3596 274.87 76.0534C275.55 76.7471 276.099 77.5865 276.484 78.5218C277.131 80.2398 277.506 82.0709 277.591 83.9328L271.963 84.1848C271.963 84.1848 272.363 98.6818 270.943 99.8508C269.524 101.02 268.986 100.6 268.986 100.6C268.986 100.6 267.904 104.002 263.683 101.489C263.683 101.489 260.181 102.672 258.681 101.055C257.18 99.4378 251.689 83.9048 251.689 83.9048L251.846 91.6048C251.846 91.6048 254.741 96.5958 253.322 97.7648C251.902 98.9338 249.126 97.8908 249.126 97.8908Z" fill="#FFBF9D"/>
<path d="M256.154 78.2417C256.287 78.5324 256.394 78.8372 256.473 79.1517L257.236 81.6717C257.861 83.7717 258.718 86.7677 259.631 90.0367C260.544 93.3057 261.307 96.3367 262.17 98.3247C262.502 99.1256 262.886 99.8977 263.321 100.635C263.627 101.16 263.821 101.426 263.802 101.447C263.783 101.468 263.733 101.398 263.633 101.272C263.487 101.096 263.349 100.911 263.221 100.719C262.74 100.004 262.321 99.24 261.97 98.4367C261.038 96.4137 260.256 93.4107 259.331 90.1487C258.405 86.8867 257.599 83.9047 257.024 81.7487C256.761 80.7197 256.536 79.8657 256.361 79.1937C256.266 78.8841 256.197 78.5655 256.154 78.2417Z" fill="#FF9A6C"/>
<path d="M263.078 76.4497C263.203 76.7501 263.3 77.0645 263.366 77.3877L264.035 79.9847C264.579 82.1757 265.286 85.2137 266.111 88.5737C266.936 91.9337 267.606 94.9857 268.093 97.1977C268.325 98.2477 268.512 99.1297 268.662 99.8157C268.746 100.135 268.801 100.464 268.825 100.796C268.707 100.492 268.61 100.179 268.537 99.8577C268.362 99.1577 268.143 98.3037 267.874 97.2607C267.324 95.0697 266.586 92.0317 265.798 88.6717C265.01 85.3117 264.304 82.2597 263.81 80.0477C263.585 78.9907 263.391 78.1157 263.247 77.4227C263.163 77.1051 263.107 76.7793 263.078 76.4497Z" fill="#FF9A6C"/>
</svg>
